<?xml version="1.0" encoding="UTF-8"?>
<!DOCTYPE svg PUBLIC "-//W3C//DTD SVG 1.1//EN" "http://www.w3.org/Graphics/SVG/1.1/DTD/svg11.dtd">
<svg xmlns="http://www.w3.org/2000/svg" version="1.1" width="628px" height="476px" style="shape-rendering:geometricPrecision; text-rendering:geometricPrecision; image-rendering:optimizeQuality; fill-rule:evenodd; clip-rule:evenodd" xmlns:xlink="http://www.w3.org/1999/xlink">
<g><path style="opacity:1" fill="#a0d427" d="M 207.5,7.5 C 207.5,25.8333 207.5,44.1667 207.5,62.5C 203.833,57.8333 200.167,53.1667 196.5,48.5C 187.211,34.7649 177.544,21.2649 167.5,8C 180.829,7.5001 194.163,7.33344 207.5,7.5 Z"/></g>
<g><path style="opacity:1" fill="#99d129" d="M 207.5,7.5 C 213.5,7.5 219.5,7.5 225.5,7.5C 225.5,34.1667 225.5,60.8333 225.5,87.5C 218.768,79.7048 212.768,71.3714 207.5,62.5C 207.5,44.1667 207.5,25.8333 207.5,7.5 Z"/></g>
<g><path style="opacity:1" fill="#50aee1" d="M 344.5,7.5 C 359.833,7.5 375.167,7.5 390.5,7.5C 390.831,28.6733 390.497,49.6733 389.5,70.5C 384.522,62.863 379.188,55.5297 373.5,48.5C 364.079,34.6578 354.412,20.9912 344.5,7.5 Z"/></g>
<g><path style="opacity:1" fill="#4da0d5" d="M 390.5,7.5 C 394.833,7.5 399.167,7.5 403.5,7.5C 406.111,11.9507 408.944,16.2841 412,20.5C 412.83,47.6698 412.664,74.6698 411.5,101.5C 408.112,98.4029 405.445,94.7363 403.5,90.5C 399.223,83.5568 394.556,76.8901 389.5,70.5C 390.497,49.6733 390.831,28.6733 390.5,7.5 Z"/></g>
<g><path style="opacity:1" fill="#8fcb2a" d="M 225.5,7.5 C 231.833,7.5 238.167,7.5 244.5,7.5C 244.666,15.1739 244.5,22.8406 244,30.5C 242.088,28.3428 240.421,26.0094 239,23.5C 238.346,22.3044 237.846,22.3044 237.5,23.5C 238.828,50.9607 238.828,78.2941 237.5,105.5C 233.479,100.804 229.812,95.8045 226.5,90.5C 225.89,89.609 225.557,88.609 225.5,87.5C 225.5,60.8333 225.5,34.1667 225.5,7.5 Z"/></g>
<g><path style="opacity:1" fill="#378e3d" d="M 284.5,7.5 C 278.167,7.5 271.833,7.5 265.5,7.5C 260.167,7.5 254.833,7.5 249.5,7.5C 247.833,7.5 246.167,7.5 244.5,7.5C 238.167,7.5 231.833,7.5 225.5,7.5C 219.5,7.5 213.5,7.5 207.5,7.5C 194.163,7.33344 180.829,7.5001 167.5,8C 177.544,21.2649 187.211,34.7649 196.5,48.5C 191.399,53.9359 187.066,59.9359 183.5,66.5C 179.167,71.8333 174.833,77.1667 170.5,82.5C 170.473,77.7991 168.473,74.1324 164.5,71.5C 162.677,66.9816 159.51,63.6483 155,61.5C 154.192,57.627 152.858,53.9604 151,50.5C 147.816,48.803 146.15,46.1363 146,42.5C 145.184,41.1772 144.017,40.5106 142.5,40.5C 150.368,29.2745 158.368,18.1078 166.5,7C 206.002,6.16879 245.335,6.33546 284.5,7.5 Z"/></g>
<g><path style="opacity:1" fill="#4b96ce" d="M 403.5,7.5 C 410.5,7.5 417.5,7.5 424.5,7.5C 424.666,16.5062 424.5,25.5062 424,34.5C 421.412,31.999 421.078,32.3323 423,35.5C 423.167,49 423.333,62.5 423.5,76C 423.499,89.8503 422.833,103.35 421.5,116.5C 417.908,111.643 414.575,106.643 411.5,101.5C 412.664,74.6698 412.83,47.6698 412,20.5C 408.944,16.2841 406.111,11.9507 403.5,7.5 Z"/></g>
<g><path style="opacity:1" fill="#8ac92b" d="M 244.5,7.5 C 246.167,7.5 247.833,7.5 249.5,7.5C 248.963,12.7388 249.63,17.7388 251.5,22.5C 249.022,24.5637 249.022,26.5637 251.5,28.5C 249.561,30.1222 249.228,31.9555 250.5,34C 249.809,35.0674 249.309,36.2341 249,37.5C 248.346,36.3044 247.846,36.3044 247.5,37.5C 248.667,39.1667 249.833,40.8333 251,42.5C 251.167,56 251.333,69.5 251.5,83C 251.499,96.8503 250.833,110.35 249.5,123.5C 245.082,117.754 241.082,111.754 237.5,105.5C 238.828,78.2941 238.828,50.9607 237.5,23.5C 237.846,22.3044 238.346,22.3044 239,23.5C 240.421,26.0094 242.088,28.3428 244,30.5C 244.5,22.8406 244.666,15.1739 244.5,7.5 Z"/></g>
<g><path style="opacity:1" fill="#70bb31" d="M 288.5,13.5 C 296.232,22.6276 303.232,32.2942 309.5,42.5C 309.894,43.9672 310.227,45.4672 310.5,47C 307.675,60.7109 305.508,74.5442 304,88.5C 300.045,91.7955 298.378,96.1288 299,101.5C 298.085,102.328 297.419,103.328 297,104.5C 296.617,103.944 296.117,103.611 295.5,103.5C 292.833,100.5 290.167,97.5 287.5,94.5C 283.608,87.9281 279.275,81.5948 274.5,75.5C 275.355,74.707 276.189,75.0403 277,76.5C 279.607,68.9333 281.607,61.2666 283,53.5C 284.154,52.2567 285.488,51.2567 287,50.5C 287.206,38.1216 287.706,25.7883 288.5,13.5 Z"/></g>
<g><path style="opacity:1" fill="#3b508e" d="M 344.5,7.5 C 354.412,20.9912 364.079,34.6578 373.5,48.5C 366.785,57.2178 360.452,66.2178 354.5,75.5C 353.542,75.9528 352.708,76.6195 352,77.5C 347.853,73.022 343.353,68.8553 338.5,65C 330.273,60.0614 322.273,54.8948 314.5,49.5C 314.167,48.8333 313.833,48.1667 313.5,47.5C 323.779,34.2095 334.112,20.8761 344.5,7.5 Z"/></g>
<g><path style="opacity:1" fill="#4a91c9" d="M 424.5,7.5 C 428.5,7.5 432.5,7.5 436.5,7.5C 436.667,22.1705 436.5,36.8371 436,51.5C 435.346,50.3044 434.846,50.3044 434.5,51.5C 435.828,78.9607 435.828,106.294 434.5,133.5C 429.814,128.142 425.481,122.475 421.5,116.5C 422.833,103.35 423.499,89.8503 423.5,76C 423.333,62.5 423.167,49 423,35.5C 421.078,32.3323 421.412,31.999 424,34.5C 424.5,25.5062 424.666,16.5062 424.5,7.5 Z"/></g>
<g><path style="opacity:1" fill="#429b3e" d="M 142.5,40.5 C 144.017,40.5106 145.184,41.1772 146,42.5C 146.15,46.1363 147.816,48.803 151,50.5C 152.858,53.9604 154.192,57.627 155,61.5C 159.51,63.6483 162.677,66.9816 164.5,71.5C 168.473,74.1324 170.473,77.7991 170.5,82.5C 169.529,84.4832 168.529,86.4832 167.5,88.5C 165.5,90.8333 163.5,93.1667 161.5,95.5C 160.895,92.8733 160.395,90.2066 160,87.5C 158.252,85.8648 157.085,83.8648 156.5,81.5C 153.055,79.2319 149.722,76.7319 146.5,74C 148.211,72.8668 148.711,71.3668 148,69.5C 142.823,64.9737 137.157,61.307 131,58.5C 130.617,59.056 130.117,59.3893 129.5,59.5C 133.45,52.8871 137.783,46.5537 142.5,40.5 Z"/></g>
<g><path style="opacity:1" fill="#85c82d" d="M 249.5,7.5 C 254.833,7.5 260.167,7.5 265.5,7.5C 265.666,14.175 265.5,20.8417 265,27.5C 264.586,27.9574 264.086,28.2907 263.5,28.5C 262.618,37.316 261.285,45.9826 259.5,54.5C 261.58,56.9928 263.414,59.6595 265,62.5C 265.83,89.6698 265.664,116.67 264.5,143.5C 261.397,138.948 258.064,134.614 254.5,130.5C 253.079,127.991 251.412,125.657 249.5,123.5C 250.833,110.35 251.499,96.8503 251.5,83C 251.333,69.5 251.167,56 251,42.5C 249.833,40.8333 248.667,39.1667 247.5,37.5C 247.846,36.3044 248.346,36.3044 249,37.5C 249.309,36.2341 249.809,35.0674 250.5,34C 249.228,31.9555 249.561,30.1222 251.5,28.5C 249.022,26.5637 249.022,24.5637 251.5,22.5C 249.63,17.7388 248.963,12.7388 249.5,7.5 Z"/></g>
<g><path style="opacity:1" fill="#46ab3a" d="M 196.5,48.5 C 196.5,75.5 196.5,102.5 196.5,129.5C 192.644,135.891 188.311,141.891 183.5,147.5C 183.5,120.5 183.5,93.5 183.5,66.5C 187.066,59.9359 191.399,53.9359 196.5,48.5 Z"/></g>
<g><path style="opacity:1" fill="#3ea43a" d="M 196.5,48.5 C 200.167,53.1667 203.833,57.8333 207.5,62.5C 212.768,71.3714 218.768,79.7048 225.5,87.5C 225.557,88.609 225.89,89.609 226.5,90.5C 225.504,90.4142 224.671,90.7476 224,91.5C 215.057,104.411 205.89,117.077 196.5,129.5C 196.5,102.5 196.5,75.5 196.5,48.5 Z"/></g>
<g><path style="opacity:1" fill="#498bc5" d="M 436.5,7.5 C 440.167,7.5 443.833,7.5 447.5,7.5C 448.233,25.8208 448.566,44.3208 448.5,63C 448.333,64.8333 448.167,66.6667 448,68.5C 447.346,67.3044 446.846,67.3044 446.5,68.5C 447.828,95.9607 447.828,123.294 446.5,150.5C 441.765,145.368 437.765,139.701 434.5,133.5C 435.828,106.294 435.828,78.9607 434.5,51.5C 434.846,50.3044 435.346,50.3044 436,51.5C 436.5,36.8371 436.667,22.1705 436.5,7.5 Z"/></g>
<g><path style="opacity:1" fill="#4ba23c" d="M 161.5,95.5 C 156.081,104.007 150.414,112.34 144.5,120.5C 144.167,120.5 143.833,120.5 143.5,120.5C 141.331,113.497 139.164,106.497 137,99.5C 131.597,94.6987 128.264,88.6987 127,81.5C 123.507,79.516 121.007,76.8493 119.5,73.5C 122.345,68.4727 125.679,63.806 129.5,59.5C 130.117,59.3893 130.617,59.056 131,58.5C 137.157,61.307 142.823,64.9737 148,69.5C 148.711,71.3668 148.211,72.8668 146.5,74C 149.722,76.7319 153.055,79.2319 156.5,81.5C 157.085,83.8648 158.252,85.8648 160,87.5C 160.395,90.2066 160.895,92.8733 161.5,95.5 Z"/></g>
<g><path style="opacity:1" fill="#7cc42f" d="M 265.5,7.5 C 271.833,7.5 278.167,7.5 284.5,7.5C 286.326,9.14746 287.66,11.1475 288.5,13.5C 287.706,25.7883 287.206,38.1216 287,50.5C 285.488,51.2567 284.154,52.2567 283,53.5C 281.607,61.2666 279.607,68.9333 277,76.5C 276.189,75.0403 275.355,74.707 274.5,75.5C 279.275,81.5948 283.608,87.9281 287.5,94.5C 287.831,121.339 287.498,148.005 286.5,174.5C 279.167,164.167 271.833,153.833 264.5,143.5C 265.664,116.67 265.83,89.6698 265,62.5C 263.414,59.6595 261.58,56.9928 259.5,54.5C 261.285,45.9826 262.618,37.316 263.5,28.5C 264.086,28.2907 264.586,27.9574 265,27.5C 265.5,20.8417 265.666,14.175 265.5,7.5 Z"/></g>
<g><path style="opacity:1" fill="#3f5d9d" d="M 373.5,48.5 C 379.188,55.5297 384.522,62.863 389.5,70.5C 394.556,76.8901 399.223,83.5568 403.5,90.5C 399.843,94.1637 396.509,98.1637 393.5,102.5C 393.586,101.504 393.252,100.671 392.5,100C 379.975,91.5735 367.308,83.4068 354.5,75.5C 360.452,66.2178 366.785,57.2178 373.5,48.5 Z"/></g>
<g><path style="opacity:1" fill="#4dae38" d="M 183.5,66.5 C 183.5,93.5 183.5,120.5 183.5,147.5C 178.41,155.35 173.077,163.016 167.5,170.5C 167.5,143.167 167.5,115.833 167.5,88.5C 168.529,86.4832 169.529,84.4832 170.5,82.5C 174.833,77.1667 179.167,71.8333 183.5,66.5 Z"/></g>
<g><path style="opacity:1" fill="#416ba8" d="M 501.5,63.5 C 506.235,68.6321 510.235,74.2987 513.5,80.5C 512.934,83.5826 512.934,86.5826 513.5,89.5C 512.023,91.8409 511.69,94.1742 512.5,96.5C 509.461,108.227 507.628,120.227 507,132.5C 505.191,136.924 504.191,141.59 504,146.5C 503.617,145.944 503.117,145.611 502.5,145.5C 500.827,144.657 499.66,143.324 499,141.5C 498.184,169.209 498.351,196.876 499.5,224.5C 498.026,223.564 497.026,222.23 496.5,220.5C 497.664,193.336 497.83,166.003 497,138.5C 495.045,136.089 493.211,133.589 491.5,131C 493.723,130.348 494.89,128.848 495,126.5C 497.566,105.506 499.733,84.5063 501.5,63.5 Z"/></g>
<g><path style="opacity:1" fill="#61b336" d="M 309.5,42.5 C 311.063,43.9448 312.396,45.6115 313.5,47.5C 313.833,48.1667 314.167,48.8333 314.5,49.5C 321.5,59.5 328.5,69.5 335.5,79.5C 333.998,82.4529 332.998,85.6196 332.5,89C 333.769,91.1385 333.769,93.3052 332.5,95.5C 330.517,96.982 328.684,98.6487 327,100.5C 327.814,105.765 326.814,110.765 324,115.5C 323.259,114.359 322.425,114.359 321.5,115.5C 320.029,118.321 320.363,120.821 322.5,123C 319.971,125.029 317.304,126.862 314.5,128.5C 313.817,128.137 313.15,127.804 312.5,127.5C 311.833,127.167 311.167,126.833 310.5,126.5C 305.251,119.004 300.251,111.337 295.5,103.5C 296.117,103.611 296.617,103.944 297,104.5C 297.419,103.328 298.085,102.328 299,101.5C 298.378,96.1288 300.045,91.7955 304,88.5C 305.508,74.5442 307.675,60.7109 310.5,47C 310.227,45.4672 309.894,43.9672 309.5,42.5 Z"/></g>
<g><path style="opacity:1" fill="#4886c1" d="M 447.5,7.5 C 451.833,7.5 456.167,7.5 460.5,7.5C 461.458,15.501 461.792,23.3343 461.5,31C 460.874,31.7504 460.374,32.5838 460,33.5C 459.667,50.1667 459.333,66.8333 459,83.5C 457.426,82.0158 456.093,80.3492 455,78.5C 455.16,105.852 454.327,132.852 452.5,159.5C 450.252,156.672 448.252,153.672 446.5,150.5C 447.828,123.294 447.828,95.9607 446.5,68.5C 446.846,67.3044 447.346,67.3044 448,68.5C 448.167,66.6667 448.333,64.8333 448.5,63C 448.566,44.3208 448.233,25.8208 447.5,7.5 Z"/></g>
<g><path style="opacity:1" fill="#54a839" d="M 119.5,73.5 C 121.007,76.8493 123.507,79.516 127,81.5C 128.264,88.6987 131.597,94.6987 137,99.5C 139.164,106.497 141.331,113.497 143.5,120.5C 140.235,126.701 136.235,132.368 131.5,137.5C 132.324,129.039 129.157,122.705 122,118.5C 120.333,113.167 118.667,107.833 117,102.5C 115.245,101.33 114.245,99.6633 114,97.5C 113.333,96.8333 112.667,96.1667 112,95.5C 111.814,97.9005 111.314,100.234 110.5,102.5C 108.183,100.684 106.016,98.684 104,96.5C 103.292,97.3805 102.458,98.0472 101.5,98.5C 106.732,89.6031 112.732,81.2698 119.5,73.5 Z"/></g>
<g><path style="opacity:1" fill="#4165a3" d="M 314.5,49.5 C 322.273,54.8948 330.273,60.0614 338.5,65C 343.353,68.8553 347.853,73.022 352,77.5C 352.708,76.6195 353.542,75.9528 354.5,75.5C 367.308,83.4068 379.975,91.5735 392.5,100C 393.252,100.671 393.586,101.504 393.5,102.5C 387.189,112.135 380.523,121.468 373.5,130.5C 372.833,130.167 372.167,129.833 371.5,129.5C 363.821,118.796 356.154,108.129 348.5,97.5C 344.644,91.1087 340.311,85.1087 335.5,79.5C 328.5,69.5 321.5,59.5 314.5,49.5 Z"/></g>
<g><path style="opacity:1" fill="#4065a2" d="M 513.5,80.5 C 519.233,86.9633 524.233,93.9633 528.5,101.5C 526.882,106.903 526.049,112.57 526,118.5C 525,119.5 524,120.5 523,121.5C 521.344,135.112 518.678,148.445 515,161.5C 514.292,160.619 513.458,159.953 512.5,159.5C 508.679,155.194 505.345,150.527 502.5,145.5C 503.117,145.611 503.617,145.944 504,146.5C 504.191,141.59 505.191,136.924 507,132.5C 507.628,120.227 509.461,108.227 512.5,96.5C 511.69,94.1742 512.023,91.8409 513.5,89.5C 512.934,86.5826 512.934,83.5826 513.5,80.5 Z"/></g>
<g><path style="opacity:1" fill="#447ab4" d="M 344.5,7.5 C 383.331,6.33547 422.331,6.16881 461.5,7C 467.053,14.3791 472.386,21.8791 477.5,29.5C 477.098,36.852 476.432,44.1853 475.5,51.5C 475.627,56.3347 475.961,61.168 476.5,66C 475.914,68.2798 475.08,70.4465 474,72.5C 473.667,81.1667 473.333,89.8333 473,98.5C 472.119,100.274 470.953,100.94 469.5,100.5C 470.757,102.679 472.257,104.679 474,106.5C 474.167,120 474.333,133.5 474.5,147C 474.499,160.85 473.833,174.35 472.5,187.5C 465.833,178.167 459.167,168.833 452.5,159.5C 454.327,132.852 455.16,105.852 455,78.5C 456.093,80.3492 457.426,82.0158 459,83.5C 459.333,66.8333 459.667,50.1667 460,33.5C 460.374,32.5838 460.874,31.7504 461.5,31C 461.792,23.3343 461.458,15.501 460.5,7.5C 456.167,7.5 451.833,7.5 447.5,7.5C 443.833,7.5 440.167,7.5 436.5,7.5C 432.5,7.5 428.5,7.5 424.5,7.5C 417.5,7.5 410.5,7.5 403.5,7.5C 399.167,7.5 394.833,7.5 390.5,7.5C 375.167,7.5 359.833,7.5 344.5,7.5 Z"/></g>
<g><path style="opacity:1" fill="#55ab39" d="M 335.5,79.5 C 340.311,85.1087 344.644,91.1087 348.5,97.5C 345.04,107.262 342.54,117.262 341,127.5C 339.337,130.558 337.67,133.558 336,136.5C 335.621,142.473 333.788,147.807 330.5,152.5C 323.768,144.705 317.768,136.371 312.5,127.5C 313.15,127.804 313.817,128.137 314.5,128.5C 317.304,126.862 319.971,125.029 322.5,123C 320.363,120.821 320.029,118.321 321.5,115.5C 322.425,114.359 323.259,114.359 324,115.5C 326.814,110.765 327.814,105.765 327,100.5C 328.684,98.6487 330.517,96.982 332.5,95.5C 333.769,93.3052 333.769,91.1385 332.5,89C 332.998,85.6196 333.998,82.4529 335.5,79.5 Z"/></g>
<g><path style="opacity:1" fill="#57b236" d="M 167.5,88.5 C 167.5,115.833 167.5,143.167 167.5,170.5C 159.821,181.204 152.154,191.871 144.5,202.5C 144.5,175.167 144.5,147.833 144.5,120.5C 150.414,112.34 156.081,104.007 161.5,95.5C 163.5,93.1667 165.5,90.8333 167.5,88.5 Z"/></g>
<g><path style="opacity:1" fill="#63b235" d="M 131.5,137.5 C 127.223,144.443 122.556,151.11 117.5,157.5C 114.882,162.413 111.548,166.746 107.5,170.5C 105.519,162.028 104.019,153.362 103,144.5C 102,143.5 101,142.5 100,141.5C 98.2722,136.721 97.2722,131.721 97,126.5C 95.8701,122.69 93.8701,119.357 91,116.5C 90.2303,115.402 89.397,115.402 88.5,116.5C 92.0659,109.936 96.3993,103.936 101.5,98.5C 102.458,98.0472 103.292,97.3805 104,96.5C 106.016,98.684 108.183,100.684 110.5,102.5C 111.314,100.234 111.814,97.9005 112,95.5C 112.667,96.1667 113.333,96.8333 114,97.5C 114.245,99.6633 115.245,101.33 117,102.5C 118.667,107.833 120.333,113.167 122,118.5C 129.157,122.705 132.324,129.039 131.5,137.5 Z"/></g>
<g><path style="opacity:1" fill="#4577b4" d="M 477.5,29.5 C 481.658,34.4773 485.324,39.8106 488.5,45.5C 488.667,59.1707 488.5,72.8374 488,86.5C 486.249,88.212 485.582,90.212 486,92.5C 486.718,91.5494 487.551,91.3828 488.5,92C 484.563,98.2231 482.73,105.39 483,113.5C 482.309,115.891 481.309,115.891 480,113.5C 479.833,113.833 479.667,114.167 479.5,114.5C 481.58,116.993 483.414,119.659 485,122.5C 485.83,149.67 485.664,176.67 484.5,203.5C 480.147,198.473 476.147,193.14 472.5,187.5C 473.833,174.35 474.499,160.85 474.5,147C 474.333,133.5 474.167,120 474,106.5C 472.257,104.679 470.757,102.679 469.5,100.5C 470.953,100.94 472.119,100.274 473,98.5C 473.333,89.8333 473.667,81.1667 474,72.5C 475.08,70.4465 475.914,68.2798 476.5,66C 475.961,61.168 475.627,56.3347 475.5,51.5C 476.432,44.1853 477.098,36.852 477.5,29.5 Z"/></g>
<g><path style="opacity:1" fill="#6fbf32" d="M 287.5,94.5 C 290.167,97.5 292.833,100.5 295.5,103.5C 300.251,111.337 305.251,119.004 310.5,126.5C 310.831,153.339 310.498,180.005 309.5,206.5C 305.853,200.86 301.853,195.527 297.5,190.5C 294.337,184.848 290.67,179.515 286.5,174.5C 287.498,148.005 287.831,121.339 287.5,94.5 Z"/></g>
<g><path style="opacity:1" fill="#48a43c" d="M 348.5,97.5 C 356.154,108.129 363.821,118.796 371.5,129.5C 371.617,131.484 370.95,133.15 369.5,134.5C 370.811,135.258 371.311,136.258 371,137.5C 367.333,140.167 363.667,142.833 360,145.5C 359.689,147.556 359.189,149.556 358.5,151.5C 358.846,152.696 359.346,152.696 360,151.5C 360.333,150.167 360.667,148.833 361,147.5C 361.667,149.167 361.667,150.833 361,152.5C 358.523,153.985 356.356,155.819 354.5,158C 357.061,160.947 356.894,163.78 354,166.5C 353,166.833 352,167.167 351,167.5C 351.333,165.167 351.667,162.833 352,160.5C 350.027,161.64 348.193,162.973 346.5,164.5C 346.036,166.975 345.036,168.975 343.5,170.5C 340.833,167.5 338.167,164.5 335.5,161.5C 333.58,158.661 331.913,155.661 330.5,152.5C 333.788,147.807 335.621,142.473 336,136.5C 337.67,133.558 339.337,130.558 341,127.5C 342.54,117.262 345.04,107.262 348.5,97.5 Z"/></g>
<g><path style="opacity:1" fill="#4472af" d="M 488.5,45.5 C 493.321,51.1381 497.654,57.1381 501.5,63.5C 499.733,84.5063 497.566,105.506 495,126.5C 494.89,128.848 493.723,130.348 491.5,131C 493.211,133.589 495.045,136.089 497,138.5C 497.83,166.003 497.664,193.336 496.5,220.5C 491.765,215.368 487.765,209.701 484.5,203.5C 485.664,176.67 485.83,149.67 485,122.5C 483.414,119.659 481.58,116.993 479.5,114.5C 479.667,114.167 479.833,113.833 480,113.5C 481.309,115.891 482.309,115.891 483,113.5C 482.73,105.39 484.563,98.2231 488.5,92C 487.551,91.3828 486.718,91.5494 486,92.5C 485.582,90.212 486.249,88.212 488,86.5C 488.5,72.8374 488.667,59.1707 488.5,45.5 Z"/></g>
<g><path style="opacity:1" fill="#71ba32" d="M 107.5,170.5 C 104.093,176.309 100.426,181.975 96.5,187.5C 93.6867,191.098 90.8533,194.765 88,198.5C 87.6667,195.5 87.3333,192.5 87,189.5C 86.2329,186.52 84.8996,183.854 83,181.5C 83.0923,177.707 82.0923,174.373 80,171.5C 78.4942,164.597 76.4942,157.931 74,151.5C 71.8416,150.174 70.0082,148.507 68.5,146.5C 67.8165,146.863 67.1499,147.196 66.5,147.5C 73.0991,136.631 80.4324,126.298 88.5,116.5C 89.397,115.402 90.2303,115.402 91,116.5C 93.8701,119.357 95.8701,122.69 97,126.5C 97.2722,131.721 98.2722,136.721 100,141.5C 101,142.5 102,143.5 103,144.5C 104.019,153.362 105.519,162.028 107.5,170.5 Z"/></g>
<g><path style="opacity:1" fill="#3e5b9b" d="M 528.5,101.5 C 535.655,110.473 542.321,119.806 548.5,129.5C 549.85,133.747 550.35,138.08 550,142.5C 549,144.833 548,147.167 547,149.5C 546.73,152.224 546.23,154.891 545.5,157.5C 545.709,158.086 546.043,158.586 546.5,159C 545.217,162.251 543.884,165.418 542.5,168.5C 541.539,176.765 539.706,184.765 537,192.5C 536.346,191.304 535.846,191.304 535.5,192.5C 542.503,202.823 549.837,212.823 557.5,222.5C 560.575,227.643 563.908,232.643 567.5,237.5C 553.833,237.5 540.167,237.5 526.5,237.5C 526.667,218.164 526.5,198.83 526,179.5C 521.232,172.949 516.732,166.282 512.5,159.5C 513.458,159.953 514.292,160.619 515,161.5C 518.678,148.445 521.344,135.112 523,121.5C 524,120.5 525,119.5 526,118.5C 526.049,112.57 526.882,106.903 528.5,101.5 Z"/></g>
<g><path style="opacity:1" fill="#63b834" d="M 143.5,120.5 C 143.833,120.5 144.167,120.5 144.5,120.5C 144.5,147.833 144.5,175.167 144.5,202.5C 136.4,214.38 128.066,226.047 119.5,237.5C 119.167,237.5 118.833,237.5 118.5,237.5C 118.831,210.661 118.498,183.995 117.5,157.5C 122.556,151.11 127.223,144.443 131.5,137.5C 136.235,132.368 140.235,126.701 143.5,120.5 Z"/></g>
<g><path style="opacity:1" fill="#3c9a3f" d="M 371.5,129.5 C 372.167,129.833 372.833,130.167 373.5,130.5C 377.426,136.025 381.093,141.691 384.5,147.5C 383.417,154.235 381.917,160.902 380,167.5C 379,168.167 378,168.833 377,169.5C 373.542,178.989 370.542,188.656 368,198.5C 367.184,199.823 366.017,200.489 364.5,200.5C 357.01,190.858 350.01,180.858 343.5,170.5C 345.036,168.975 346.036,166.975 346.5,164.5C 348.193,162.973 350.027,161.64 352,160.5C 351.667,162.833 351.333,165.167 351,167.5C 352,167.167 353,166.833 354,166.5C 356.894,163.78 357.061,160.947 354.5,158C 356.356,155.819 358.523,153.985 361,152.5C 361.667,150.833 361.667,149.167 361,147.5C 360.667,148.833 360.333,150.167 360,151.5C 359.346,152.696 358.846,152.696 358.5,151.5C 359.189,149.556 359.689,147.556 360,145.5C 363.667,142.833 367.333,140.167 371,137.5C 371.311,136.258 370.811,135.258 369.5,134.5C 370.95,133.15 371.617,131.484 371.5,129.5 Z"/></g>
<g><path style="opacity:1" fill="#426aa9" d="M 502.5,145.5 C 505.345,150.527 508.679,155.194 512.5,159.5C 516.732,166.282 521.232,172.949 526,179.5C 526.5,198.83 526.667,218.164 526.5,237.5C 520.077,237.791 513.744,237.458 507.5,236.5C 504.415,232.754 501.749,228.754 499.5,224.5C 498.351,196.876 498.184,169.209 499,141.5C 499.66,143.324 500.827,144.657 502.5,145.5 Z"/></g>
<g><path style="opacity:1" fill="#62b834" d="M 310.5,126.5 C 311.167,126.833 311.833,127.167 312.5,127.5C 317.768,136.371 323.768,144.705 330.5,152.5C 331.913,155.661 333.58,158.661 335.5,161.5C 335.5,186.833 335.5,212.167 335.5,237.5C 333.784,237.371 332.117,237.038 330.5,236.5C 324.92,229.008 319.587,221.341 314.5,213.5C 313.079,210.991 311.412,208.657 309.5,206.5C 310.498,180.005 310.831,153.339 310.5,126.5 Z"/></g>
<g><path style="opacity:1" fill="#7cc12e" d="M 96.5,187.5 C 96.5,204.167 96.5,220.833 96.5,237.5C 92.5,237.5 88.5,237.5 84.5,237.5C 84.6665,226.495 84.4998,215.495 84,204.5C 79.6667,210.5 75.3333,216.5 71,222.5C 68.5918,213.386 66.9251,204.053 66,194.5C 65.586,194.043 65.086,193.709 64.5,193.5C 63.6735,189.541 63.1735,185.541 63,181.5C 60.2275,178.057 58.8942,174.057 59,169.5C 56.8064,166.034 54.3064,165.7 51.5,168.5C 55.7665,160.963 60.7665,153.963 66.5,147.5C 67.1499,147.196 67.8165,146.863 68.5,146.5C 70.0082,148.507 71.8416,150.174 74,151.5C 76.4942,157.931 78.4942,164.597 80,171.5C 82.0923,174.373 83.0923,177.707 83,181.5C 84.8996,183.854 86.2329,186.52 87,189.5C 87.3333,192.5 87.6667,195.5 88,198.5C 90.8533,194.765 93.6867,191.098 96.5,187.5 Z"/></g>
<g><path style="opacity:1" fill="#4b9ace" d="M 254.5,130.5 C 258.064,134.614 261.397,138.948 264.5,143.5C 271.833,153.833 279.167,164.167 286.5,174.5C 290.67,179.515 294.337,184.848 297.5,190.5C 291.568,187.084 285.735,183.418 280,179.5C 276.877,181.589 276.71,180.922 279.5,177.5C 266.87,169.18 254.203,160.847 241.5,152.5C 240.817,152.863 240.15,153.196 239.5,153.5C 244.749,146.004 249.749,138.337 254.5,130.5 Z"/></g>
<g><path style="opacity:1" fill="#3a4e8c" d="M 548.5,129.5 C 558.566,141.962 567.9,154.962 576.5,168.5C 578.742,172.014 578.076,175.18 574.5,178C 575.163,179.677 575.163,181.51 574.5,183.5C 571.851,190.25 569.018,196.917 566,203.5C 565.092,208.956 563.759,214.289 562,219.5C 560.385,220.386 558.885,221.386 557.5,222.5C 549.837,212.823 542.503,202.823 535.5,192.5C 535.846,191.304 536.346,191.304 537,192.5C 539.706,184.765 541.539,176.765 542.5,168.5C 543.884,165.418 545.217,162.251 546.5,159C 546.043,158.586 545.709,158.086 545.5,157.5C 546.23,154.891 546.73,152.224 547,149.5C 548,147.167 549,144.833 550,142.5C 550.35,138.08 549.85,133.747 548.5,129.5 Z"/></g>
<g><path style="opacity:1" fill="#309041" d="M 384.5,147.5 C 392.935,157.603 400.601,168.27 407.5,179.5C 407.678,180.695 408.011,181.862 408.5,183C 403.429,187.307 400.596,192.807 400,199.5C 397.674,200.813 396.341,202.813 396,205.5C 390.644,209.54 387.311,214.873 386,221.5C 384.89,223.037 383.39,223.703 381.5,223.5C 375.479,216.139 369.813,208.472 364.5,200.5C 366.017,200.489 367.184,199.823 368,198.5C 370.542,188.656 373.542,178.989 377,169.5C 378,168.833 379,168.167 380,167.5C 381.917,160.902 383.417,154.235 384.5,147.5 Z"/></g>
<g><path style="opacity:1" fill="#88c72c" d="M 84.5,237.5 C 70.8333,237.5 57.1667,237.5 43.5,237.5C 43.5647,224.794 42.8981,212.128 41.5,199.5C 41.0016,196.465 39.6683,193.965 37.5,192C 35.9343,191.7 34.601,192.2 33.5,193.5C 38.7675,184.629 44.7675,176.295 51.5,168.5C 54.3064,165.7 56.8064,166.034 59,169.5C 58.8942,174.057 60.2275,178.057 63,181.5C 63.1735,185.541 63.6735,189.541 64.5,193.5C 65.086,193.709 65.586,194.043 66,194.5C 66.9251,204.053 68.5918,213.386 71,222.5C 75.3333,216.5 79.6667,210.5 84,204.5C 84.4998,215.495 84.6665,226.495 84.5,237.5 Z"/></g>
<g><path style="opacity:1" fill="#54b338" d="M 335.5,161.5 C 338.167,164.5 340.833,167.5 343.5,170.5C 350.01,180.858 357.01,190.858 364.5,200.5C 369.813,208.472 375.479,216.139 381.5,223.5C 384.474,228.149 387.474,232.816 390.5,237.5C 372.167,237.5 353.833,237.5 335.5,237.5C 335.5,212.167 335.5,186.833 335.5,161.5 Z"/></g>
<g><path style="opacity:1" fill="#71c031" d="M 117.5,157.5 C 118.498,183.995 118.831,210.661 118.5,237.5C 111.167,237.5 103.833,237.5 96.5,237.5C 96.5,220.833 96.5,204.167 96.5,187.5C 100.426,181.975 104.093,176.309 107.5,170.5C 111.548,166.746 114.882,162.413 117.5,157.5 Z"/></g>
<g><path style="opacity:1" fill="#4fa9db" d="M 297.5,190.5 C 301.853,195.527 305.853,200.86 309.5,206.5C 311.412,208.657 313.079,210.991 314.5,213.5C 312.833,215.5 311.167,217.5 309.5,219.5C 309.586,218.504 309.252,217.671 308.5,217C 285.685,203.495 264.018,188.495 243.5,172C 239.874,169.576 235.874,167.743 231.5,166.5C 230.817,166.863 230.15,167.196 229.5,167.5C 232.345,162.473 235.679,157.806 239.5,153.5C 240.15,153.196 240.817,152.863 241.5,152.5C 254.203,160.847 266.87,169.18 279.5,177.5C 276.71,180.922 276.877,181.589 280,179.5C 285.735,183.418 291.568,187.084 297.5,190.5 Z"/></g>
<g><path style="opacity:1" fill="#53c0ed" d="M 300.5,232.5 C 299.488,233.872 298.488,235.205 297.5,236.5C 258.571,237.66 219.571,237.827 180.5,237C 181.252,236.329 181.586,235.496 181.5,234.5C 193.013,217.472 205.013,200.805 217.5,184.5C 218.601,183.2 219.934,182.7 221.5,183C 233.73,191.56 246.23,199.727 259,207.5C 260,206.5 261,205.5 262,204.5C 274.585,212.542 287.085,220.709 299.5,229C 300.337,230.011 300.67,231.178 300.5,232.5 Z"/></g>
<g><path style="opacity:1" fill="#97cd27" d="M 43.5,237.5 C 29.6565,237.829 15.9898,237.496 2.5,236.5C 12.4779,221.864 22.8113,207.531 33.5,193.5C 34.601,192.2 35.9343,191.7 37.5,192C 39.6683,193.965 41.0016,196.465 41.5,199.5C 42.8981,212.128 43.5647,224.794 43.5,237.5 Z"/></g>
<g><path style="opacity:1" fill="#51b1e2" d="M 309.5,219.5 C 306.857,224.132 303.857,228.465 300.5,232.5C 300.67,231.178 300.337,230.011 299.5,229C 287.085,220.709 274.585,212.542 262,204.5C 261,205.5 260,206.5 259,207.5C 246.23,199.727 233.73,191.56 221.5,183C 219.934,182.7 218.601,183.2 217.5,184.5C 220.765,178.299 224.765,172.632 229.5,167.5C 230.15,167.196 230.817,166.863 231.5,166.5C 235.874,167.743 239.874,169.576 243.5,172C 264.018,188.495 285.685,203.495 308.5,217C 309.252,217.671 309.586,218.504 309.5,219.5 Z"/></g>
<g><path style="opacity:1" fill="#37407d" d="M 576.5,168.5 C 593.39,191.256 610.057,214.256 626.5,237.5C 625.675,238.386 624.675,238.719 623.5,238.5C 605.007,237.503 586.341,237.17 567.5,237.5C 563.908,232.643 560.575,227.643 557.5,222.5C 558.885,221.386 560.385,220.386 562,219.5C 563.759,214.289 565.092,208.956 566,203.5C 569.018,196.917 571.851,190.25 574.5,183.5C 575.163,181.51 575.163,179.677 574.5,178C 578.076,175.18 578.742,172.014 576.5,168.5 Z"/></g>
<g><path style="opacity:1" fill="#248843" d="M 407.5,179.5 C 414.31,187.774 420.644,196.441 426.5,205.5C 425.972,209.212 425.138,212.879 424,216.5C 421.61,218.267 419.943,220.6 419,223.5C 418.885,228.391 418.052,233.057 416.5,237.5C 408.167,237.5 399.833,237.5 391.5,237.5C 391.167,237.5 390.833,237.5 390.5,237.5C 387.474,232.816 384.474,228.149 381.5,223.5C 383.39,223.703 384.89,223.037 386,221.5C 387.311,214.873 390.644,209.54 396,205.5C 396.341,202.813 397.674,200.813 400,199.5C 400.596,192.807 403.429,187.307 408.5,183C 408.011,181.862 407.678,180.695 407.5,179.5 Z"/></g>
<g><path style="opacity:1" fill="#1b7f43" d="M 426.5,205.5 C 434.145,216.1 441.812,226.766 449.5,237.5C 449.376,238.107 449.043,238.44 448.5,238.5C 438.013,237.506 427.346,237.172 416.5,237.5C 418.052,233.057 418.885,228.391 419,223.5C 419.943,220.6 421.61,218.267 424,216.5C 425.138,212.879 425.972,209.212 426.5,205.5 Z"/></g>
<g><path style="opacity:0.427" fill="#395512" d="M 330.5,236.5 C 332.117,237.038 333.784,237.371 335.5,237.5C 353.833,237.5 372.167,237.5 390.5,237.5C 390.833,237.5 391.167,237.5 391.5,237.5C 391.5,237.833 391.5,238.167 391.5,238.5C 383.167,238.5 374.833,238.5 366.5,238.5C 361.167,238.5 355.833,238.5 350.5,238.5C 344.167,238.5 337.833,238.5 331.5,238.5C 331.167,237.833 330.833,237.167 330.5,236.5 Z"/></g>
<g><path style="opacity:0.816" fill="#5f9626" d="M 391.5,238.5 C 391.5,238.167 391.5,237.833 391.5,237.5C 399.833,237.5 408.167,237.5 416.5,237.5C 427.346,237.172 438.013,237.506 448.5,238.5C 448.672,239.492 448.338,240.158 447.5,240.5C 429.197,238.513 410.53,237.846 391.5,238.5 Z"/></g>
<g><path style="opacity:0.812" fill="#367396" d="M 507.5,236.5 C 513.744,237.458 520.077,237.791 526.5,237.5C 540.167,237.5 553.833,237.5 567.5,237.5C 586.341,237.17 605.007,237.503 623.5,238.5C 623.672,239.492 623.338,240.158 622.5,240.5C 594.853,238.508 566.853,237.842 538.5,238.5C 527.833,238.5 517.167,238.5 506.5,238.5C 506.833,237.833 507.167,237.167 507.5,236.5 Z"/></g>
<g><path style="opacity:1" fill="#1b7d41" d="M 2.5,236.5 C 15.9898,237.496 29.6565,237.829 43.5,237.5C 57.1667,237.5 70.8333,237.5 84.5,237.5C 88.5,237.5 92.5,237.5 96.5,237.5C 103.833,237.5 111.167,237.5 118.5,237.5C 118.833,237.5 119.167,237.5 119.5,237.5C 119.5,237.833 119.5,238.167 119.5,238.5C 116.5,238.5 113.5,238.5 110.5,238.5C 93.8333,238.5 77.1667,238.5 60.5,238.5C 57.1016,238.18 53.7683,238.513 50.5,239.5C 49.4081,242.686 47.5748,245.353 45,247.5C 40.6492,258.778 36.4825,269.778 32.5,280.5C 21.8361,266.488 11.5028,252.154 1.5,237.5C 1.62358,236.893 1.95691,236.56 2.5,236.5 Z"/></g>
<g><path style="opacity:1" fill="#45ad3b" d="M 60.5,238.5 C 77.1667,238.5 93.8333,238.5 110.5,238.5C 110.5,261.5 110.5,284.5 110.5,307.5C 107.739,303.65 104.739,299.983 101.5,296.5C 94.3209,285.472 86.6542,274.805 78.5,264.5C 72.9154,255.576 66.9154,246.909 60.5,238.5 Z"/></g>
<g><path style="opacity:1" fill="#4daf39" d="M 110.5,238.5 C 113.5,238.5 116.5,238.5 119.5,238.5C 122.605,241.275 124.938,244.608 126.5,248.5C 125.883,248.389 125.383,248.056 125,247.5C 124.5,274.165 124.333,300.831 124.5,327.5C 122.833,325.5 121.167,323.5 119.5,321.5C 116.5,316.833 113.5,312.167 110.5,307.5C 110.5,284.5 110.5,261.5 110.5,238.5 Z"/></g>
<g><path style="opacity:1" fill="#2d3366" d="M 181.5,234.5 C 181.586,235.496 181.252,236.329 180.5,237C 219.571,237.827 258.571,237.66 297.5,236.5C 297.5,237.167 297.5,237.833 297.5,238.5C 294.833,238.5 292.167,238.5 289.5,238.5C 272.325,238.17 255.325,238.503 238.5,239.5C 233.595,238.555 228.595,238.221 223.5,238.5C 214.5,238.5 205.5,238.5 196.5,238.5C 196.227,246.888 196.56,255.221 197.5,263.5C 191.863,256.35 186.363,249.017 181,241.5C 178.875,238.826 179.042,236.493 181.5,234.5 Z"/></g>
<g><path style="opacity:1" fill="#353a77" d="M 223.5,238.5 C 223.5,258.833 223.5,279.167 223.5,299.5C 214.356,287.891 205.689,275.891 197.5,263.5C 196.56,255.221 196.227,246.888 196.5,238.5C 205.5,238.5 214.5,238.5 223.5,238.5 Z"/></g>
<g><path style="opacity:1" fill="#36407d" d="M 223.5,238.5 C 228.595,238.221 233.595,238.555 238.5,239.5C 241.857,243.535 244.857,247.868 247.5,252.5C 246.833,263.674 246.167,275.007 245.5,286.5C 244.914,286.709 244.414,287.043 244,287.5C 243.667,293.167 243.333,298.833 243,304.5C 242.075,305.047 241.242,305.713 240.5,306.5C 244.538,308.761 244.372,311.761 240,315.5C 239.398,318.221 239.565,320.887 240.5,323.5C 234.063,316.061 228.397,308.061 223.5,299.5C 223.5,279.167 223.5,258.833 223.5,238.5 Z"/></g>
<g><path style="opacity:1" fill="#4162a3" d="M 238.5,239.5 C 255.325,238.503 272.325,238.17 289.5,238.5C 289.5,262.167 289.5,285.833 289.5,309.5C 287.167,306.833 284.833,304.167 282.5,301.5C 271.214,284.883 259.547,268.55 247.5,252.5C 244.857,247.868 241.857,243.535 238.5,239.5 Z"/></g>
<g><path style="opacity:1" fill="#436baa" d="M 289.5,238.5 C 292.167,238.5 294.833,238.5 297.5,238.5C 302.25,244.577 306.583,250.91 310.5,257.5C 309.883,257.389 309.383,257.056 309,256.5C 308.5,283.165 308.333,309.831 308.5,336.5C 306.5,334.167 304.5,331.833 302.5,329.5C 298.167,322.833 293.833,316.167 289.5,309.5C 289.5,285.833 289.5,262.167 289.5,238.5 Z"/></g>
<g><path style="opacity:1" fill="#7bc32f" d="M 331.5,238.5 C 337.833,238.5 344.167,238.5 350.5,238.5C 350.5,256.833 350.5,275.167 350.5,293.5C 348.154,296.871 345.821,300.204 343.5,303.5C 340.188,298.196 336.521,293.196 332.5,288.5C 326.242,279.643 320.242,270.643 314.5,261.5C 319.813,253.528 325.479,245.861 331.5,238.5 Z"/></g>
<g><path style="opacity:1" fill="#98cd27" d="M 391.5,238.5 C 410.53,237.846 429.197,238.513 447.5,240.5C 433.5,260.167 419.5,279.833 405.5,299.5C 404.206,298.71 403.039,297.71 402,296.5C 402.319,291.561 400.986,287.227 398,283.5C 397.667,279.5 397.333,275.5 397,271.5C 395.333,270.167 393.667,268.833 392,267.5C 391.83,265.285 391.163,263.285 390,261.5C 389.812,255.252 389.312,249.085 388.5,243C 389.386,241.385 390.386,239.885 391.5,238.5 Z"/></g>
<g><path style="opacity:1" fill="#50addf" d="M 506.5,238.5 C 517.167,238.5 527.833,238.5 538.5,238.5C 543.429,242.648 548.429,246.815 553.5,251C 554.784,251.684 555.951,251.517 557,250.5C 568.106,258.638 578.939,267.138 589.5,276C 591.217,277.559 593.217,278.392 595.5,278.5C 592.975,282.896 589.975,286.896 586.5,290.5C 585.448,290.649 584.448,290.483 583.5,290C 572.5,281.667 561.5,273.333 550.5,265C 549.809,263.933 549.309,262.766 549,261.5C 547,264.167 545,266.833 543,269.5C 531.258,260.046 519.424,250.713 507.5,241.5C 506.614,240.675 506.281,239.675 506.5,238.5 Z"/></g>
<g><path style="opacity:1" fill="#52bce9" d="M 538.5,238.5 C 566.853,237.842 594.853,238.508 622.5,240.5C 613.488,253.204 604.488,265.871 595.5,278.5C 593.217,278.392 591.217,277.559 589.5,276C 578.939,267.138 568.106,258.638 557,250.5C 555.951,251.517 554.784,251.684 553.5,251C 548.429,246.815 543.429,242.648 538.5,238.5 Z"/></g>
<g><path style="opacity:1" fill="#8eca2a" d="M 366.5,238.5 C 374.833,238.5 383.167,238.5 391.5,238.5C 390.386,239.885 389.386,241.385 388.5,243C 389.312,249.085 389.812,255.252 390,261.5C 391.163,263.285 391.83,265.285 392,267.5C 393.667,268.833 395.333,270.167 397,271.5C 397.333,275.5 397.667,279.5 398,283.5C 400.986,287.227 402.319,291.561 402,296.5C 403.039,297.71 404.206,298.71 405.5,299.5C 403.853,302.473 401.853,305.14 399.5,307.5C 397.487,304.863 394.987,302.53 392,300.5C 391.867,297.475 390.867,294.808 389,292.5C 390.55,283.431 387.55,276.431 380,271.5C 379.564,266.707 378.564,262.04 377,257.5C 373.425,261.653 370.091,265.986 367,270.5C 366.5,259.839 366.333,249.172 366.5,238.5 Z"/></g>
<g><path style="opacity:1" fill="#258b43" d="M 60.5,238.5 C 66.9154,246.909 72.9154,255.576 78.5,264.5C 77.8826,264.389 77.3826,264.056 77,263.5C 75.263,269.913 73.263,276.246 71,282.5C 68.5615,284.027 66.5615,286.027 65,288.5C 63.505,295.977 61.505,303.31 59,310.5C 58.3985,313.221 58.5651,315.887 59.5,318.5C 50.0115,306.193 41.0115,293.527 32.5,280.5C 36.4825,269.778 40.6492,258.778 45,247.5C 47.5748,245.353 49.4081,242.686 50.5,239.5C 53.7683,238.513 57.1016,238.18 60.5,238.5 Z"/></g>
<g><path style="opacity:1" fill="#54b137" d="M 126.5,248.5 C 131.601,253.936 135.934,259.936 139.5,266.5C 138.502,292.995 138.169,319.661 138.5,346.5C 133.601,340.383 128.934,334.049 124.5,327.5C 124.333,300.831 124.5,274.165 125,247.5C 125.383,248.056 125.883,248.389 126.5,248.5 Z"/></g>
<g><path style="opacity:1" fill="#88c72c" d="M 350.5,238.5 C 355.833,238.5 361.167,238.5 366.5,238.5C 366.333,249.172 366.5,259.839 367,270.5C 370.091,265.986 373.425,261.653 377,257.5C 378.564,262.04 379.564,266.707 380,271.5C 387.55,276.431 390.55,283.431 389,292.5C 390.867,294.808 391.867,297.475 392,300.5C 394.987,302.53 397.487,304.863 399.5,307.5C 395.5,313.167 391.5,318.833 387.5,324.5C 385.656,322.721 384.99,320.388 385.5,317.5C 379.875,316.251 377.209,312.584 377.5,306.5C 376.522,306.023 375.689,305.357 375,304.5C 374.667,300.833 374.333,297.167 374,293.5C 372.846,292.257 371.512,291.257 370,290.5C 369.667,287.5 369.333,284.5 369,281.5C 366.782,279.908 365.115,277.908 364,275.5C 359.252,281.401 354.752,287.401 350.5,293.5C 350.5,275.167 350.5,256.833 350.5,238.5 Z"/></g>
<g><path style="opacity:1" fill="#394885" d="M 247.5,252.5 C 259.547,268.55 271.214,284.883 282.5,301.5C 281.518,300.859 280.518,300.193 279.5,299.5C 278.473,304.014 276.973,308.348 275,312.5C 273.513,313.155 272.347,314.155 271.5,315.5C 272.5,315.5 273.5,315.5 274.5,315.5C 270.261,319.933 268.094,325.267 268,331.5C 265.293,338.269 263.127,345.269 261.5,352.5C 260.196,351.013 259.03,349.346 258,347.5C 257.184,346.177 256.017,345.511 254.5,345.5C 250.228,337.899 245.561,330.566 240.5,323.5C 239.565,320.887 239.398,318.221 240,315.5C 244.372,311.761 244.538,308.761 240.5,306.5C 241.242,305.713 242.075,305.047 243,304.5C 243.333,298.833 243.667,293.167 244,287.5C 244.414,287.043 244.914,286.709 245.5,286.5C 246.167,275.007 246.833,263.674 247.5,252.5 Z"/></g>
<g><path style="opacity:1" fill="#4c9cd1" d="M 506.5,238.5 C 506.281,239.675 506.614,240.675 507.5,241.5C 519.424,250.713 531.258,260.046 543,269.5C 545,266.833 547,264.167 549,261.5C 549.309,262.766 549.809,263.933 550.5,265C 561.5,273.333 572.5,281.667 583.5,290C 584.448,290.483 585.448,290.649 586.5,290.5C 582.583,297.09 578.25,303.423 573.5,309.5C 570.484,309.159 567.818,307.993 565.5,306C 556.117,298.283 546.451,290.949 536.5,284C 535.874,283.25 535.374,282.416 535,281.5C 533.333,283.5 531.667,285.5 530,287.5C 518.167,278.333 506.333,269.167 494.5,260C 493.663,258.989 493.33,257.822 493.5,256.5C 497.356,250.109 501.689,244.109 506.5,238.5 Z"/></g>
<g><path style="opacity:1" fill="#4577b4" d="M 310.5,257.5 C 311.833,258.833 313.167,260.167 314.5,261.5C 320.242,270.643 326.242,279.643 332.5,288.5C 331.502,314.995 331.169,341.661 331.5,368.5C 327.74,363.317 323.74,358.317 319.5,353.5C 316.093,347.691 312.426,342.025 308.5,336.5C 308.333,309.831 308.5,283.165 309,256.5C 309.383,257.056 309.883,257.389 310.5,257.5 Z"/></g>
<g><path style="opacity:1" fill="#4785bf" d="M 488.5,263.5 C 487.916,267.201 489.249,270.368 492.5,273C 502.975,280.641 513.309,288.475 523.5,296.5C 524.48,295.019 525.647,293.685 527,292.5C 527.507,293.996 527.007,295.163 525.5,296C 537.533,306.224 550.2,315.39 563.5,323.5C 561.853,326.473 559.853,329.14 557.5,331.5C 555.217,331.392 553.217,330.559 551.5,329C 540.759,320.967 530.426,312.467 520.5,303.5C 521.326,302.549 521.492,301.549 521,300.5C 519.667,302.5 518.333,304.5 517,306.5C 516.163,308.007 514.996,308.507 513.5,308C 501.5,298.667 489.5,289.333 477.5,280C 478.252,279.329 478.586,278.496 478.5,277.5C 481.478,272.531 484.811,267.865 488.5,263.5 Z"/></g>
<g><path style="opacity:1" fill="#7ebf2f" d="M 387.5,324.5 C 382.833,331.167 378.167,337.833 373.5,344.5C 372.272,343.694 371.272,342.694 370.5,341.5C 367.188,336.196 363.521,331.196 359.5,326.5C 355.733,320.62 351.733,314.954 347.5,309.5C 346.559,307.228 345.226,305.228 343.5,303.5C 345.821,300.204 348.154,296.871 350.5,293.5C 354.752,287.401 359.252,281.401 364,275.5C 365.115,277.908 366.782,279.908 369,281.5C 369.333,284.5 369.667,287.5 370,290.5C 371.512,291.257 372.846,292.257 374,293.5C 374.333,297.167 374.667,300.833 375,304.5C 375.689,305.357 376.522,306.023 377.5,306.5C 377.209,312.584 379.875,316.251 385.5,317.5C 384.99,320.388 385.656,322.721 387.5,324.5 Z"/></g>
<g><path style="opacity:1" fill="#5eb535" d="M 139.5,266.5 C 147.568,276.298 154.901,286.631 161.5,297.5C 160.336,324.33 160.17,351.33 161,378.5C 161.972,380.305 163.139,381.972 164.5,383.5C 162.916,392.426 161.749,401.426 161,410.5C 160,413.833 159,417.167 158,420.5C 157.208,432.546 157.374,444.546 158.5,456.5C 153.399,451.064 149.066,445.064 145.5,438.5C 146.056,429.83 146.722,421.164 147.5,412.5C 148.526,404.878 150.359,397.545 153,390.5C 153.333,385.833 153.667,381.167 154,376.5C 155.084,375.335 155.917,374.002 156.5,372.5C 151.163,364.51 145.496,356.843 139.5,349.5C 139.443,348.391 139.11,347.391 138.5,346.5C 138.169,319.661 138.502,292.995 139.5,266.5 Z"/></g>
<g><path style="opacity:1" fill="#467db8" d="M 478.5,277.5 C 478.586,278.496 478.252,279.329 477.5,280C 489.5,289.333 501.5,298.667 513.5,308C 514.996,308.507 516.163,308.007 517,306.5C 518.333,304.5 519.667,302.5 521,300.5C 521.492,301.549 521.326,302.549 520.5,303.5C 530.426,312.467 540.759,320.967 551.5,329C 553.217,330.559 555.217,331.392 557.5,331.5C 555.853,334.473 553.853,337.14 551.5,339.5C 538.299,330.807 525.799,321.14 514,310.5C 512,313.167 510,315.833 508,318.5C 496.258,309.046 484.424,299.713 472.5,290.5C 471.614,289.675 471.281,288.675 471.5,287.5C 473.344,283.808 475.677,280.475 478.5,277.5 Z"/></g>
<g><path style="opacity:1" fill="#329540" d="M 78.5,264.5 C 86.6542,274.805 94.3209,285.472 101.5,296.5C 100.518,295.859 99.5178,295.193 98.5,294.5C 96.3475,301.344 94.5142,308.344 93,315.5C 87.9288,324.981 83.0955,334.481 78.5,344C 79.2524,344.671 79.5858,345.504 79.5,346.5C 72.4775,337.468 65.8108,328.135 59.5,318.5C 58.5651,315.887 58.3985,313.221 59,310.5C 61.505,303.31 63.505,295.977 65,288.5C 66.5615,286.027 68.5615,284.027 71,282.5C 73.263,276.246 75.263,269.913 77,263.5C 77.3826,264.056 77.8826,264.389 78.5,264.5 Z"/></g>
<g><path style="opacity:1" fill="#498cc4" d="M 493.5,256.5 C 493.33,257.822 493.663,258.989 494.5,260C 506.333,269.167 518.167,278.333 530,287.5C 531.667,285.5 533.333,283.5 535,281.5C 535.374,282.416 535.874,283.25 536.5,284C 546.451,290.949 556.117,298.283 565.5,306C 567.818,307.993 570.484,309.159 573.5,309.5C 570.167,314.167 566.833,318.833 563.5,323.5C 550.2,315.39 537.533,306.224 525.5,296C 527.007,295.163 527.507,293.996 527,292.5C 525.647,293.685 524.48,295.019 523.5,296.5C 513.309,288.475 502.975,280.641 492.5,273C 489.249,270.368 487.916,267.201 488.5,263.5C 489.811,260.865 491.478,258.531 493.5,256.5 Z"/></g>
<g><path style="opacity:1" fill="#477fbb" d="M 332.5,288.5 C 336.521,293.196 340.188,298.196 343.5,303.5C 345.226,305.228 346.559,307.228 347.5,309.5C 346.502,335.995 346.169,362.661 346.5,389.5C 342.833,384.833 339.167,380.167 335.5,375.5C 334.194,373.184 332.861,370.85 331.5,368.5C 331.169,341.661 331.502,314.995 332.5,288.5 Z"/></g>
<g><path style="opacity:1" fill="#3d5795" d="M 282.5,301.5 C 284.833,304.167 287.167,306.833 289.5,309.5C 293.833,316.167 298.167,322.833 302.5,329.5C 301.883,329.389 301.383,329.056 301,328.5C 296.863,335.263 293.696,342.429 291.5,350C 291.833,350.333 292.167,350.667 292.5,351C 290.154,354.345 287.987,357.845 286,361.5C 284.868,367.396 283.035,373.063 280.5,378.5C 273.69,370.226 267.356,361.559 261.5,352.5C 263.127,345.269 265.293,338.269 268,331.5C 268.094,325.267 270.261,319.933 274.5,315.5C 273.5,315.5 272.5,315.5 271.5,315.5C 272.347,314.155 273.513,313.155 275,312.5C 276.973,308.348 278.473,304.014 279.5,299.5C 280.518,300.193 281.518,300.859 282.5,301.5 Z"/></g>
<g><path style="opacity:1" fill="#4886c1" d="M 347.5,309.5 C 351.733,314.954 355.733,320.62 359.5,326.5C 358.336,353.33 358.17,380.33 359,407.5C 360.167,409.167 361.333,410.833 362.5,412.5C 361.03,415.308 360.197,418.308 360,421.5C 359.85,428.922 359.017,436.255 357.5,443.5C 357.717,451.313 357.717,459.313 357.5,467.5C 353.167,467.5 348.833,467.5 344.5,467.5C 346.152,452.931 347.485,438.431 348.5,424C 348.167,423.667 347.833,423.333 347.5,423C 348.701,422.097 349.535,420.931 350,419.5C 350.175,415.789 350.675,412.122 351.5,408.5C 353.131,406.941 353.964,404.941 354,402.5C 354.654,403.696 355.154,403.696 355.5,402.5C 352.243,398.312 349.243,393.979 346.5,389.5C 346.169,362.661 346.502,335.995 347.5,309.5 Z"/></g>
<g><path style="opacity:1" fill="#4373af" d="M 471.5,287.5 C 471.281,288.675 471.614,289.675 472.5,290.5C 484.424,299.713 496.258,309.046 508,318.5C 510,315.833 512,313.167 514,310.5C 525.799,321.14 538.299,330.807 551.5,339.5C 549.565,343.707 546.898,347.373 543.5,350.5C 530.576,341.408 518.409,331.408 507,320.5C 503.909,325.014 500.575,329.347 497,333.5C 485.258,324.046 473.424,314.713 461.5,305.5C 460.708,304.3 460.708,302.967 461.5,301.5C 464.345,296.473 467.679,291.806 471.5,287.5 Z"/></g>
<g><path style="opacity:1" fill="#3e9e3d" d="M 101.5,296.5 C 104.739,299.983 107.739,303.65 110.5,307.5C 113.5,312.167 116.5,316.833 119.5,321.5C 116.58,325.001 114.413,329.001 113,333.5C 110.903,340.752 109.237,348.086 108,355.5C 106.211,358.734 104.544,362.068 103,365.5C 102.754,368.89 102.254,372.223 101.5,375.5C 102.127,376.417 102.461,377.417 102.5,378.5C 94.3552,368.224 86.6886,357.557 79.5,346.5C 79.5858,345.504 79.2524,344.671 78.5,344C 83.0955,334.481 87.9288,324.981 93,315.5C 94.5142,308.344 96.3475,301.344 98.5,294.5C 99.5178,295.193 100.518,295.859 101.5,296.5 Z"/></g>
<g><path style="opacity:1" fill="#4065a3" d="M 461.5,301.5 C 460.708,302.967 460.708,304.3 461.5,305.5C 473.424,314.713 485.258,324.046 497,333.5C 500.575,329.347 503.909,325.014 507,320.5C 518.409,331.408 530.576,341.408 543.5,350.5C 538.526,357.815 533.526,365.149 528.5,372.5C 525.375,372.135 522.375,371.302 519.5,370C 510.464,362.987 501.631,356.487 493,350.5C 490.652,348.146 489.986,345.479 491,342.5C 486.732,348.717 482.232,354.717 477.5,360.5C 465.358,351.525 453.358,342.358 441.5,333C 440.748,332.329 440.414,331.496 440.5,330.5C 447.145,320.53 454.145,310.863 461.5,301.5 Z"/></g>
<g><path style="opacity:0.498" fill="#2f4d18" d="M 185.5,330.5 C 186.906,330.973 187.573,331.973 187.5,333.5C 186.5,333.167 185.833,332.5 185.5,331.5C 185.5,331.167 185.5,330.833 185.5,330.5 Z"/></g>
<g><path style="opacity:1" fill="#4aa63a" d="M 119.5,321.5 C 121.167,323.5 122.833,325.5 124.5,327.5C 128.934,334.049 133.601,340.383 138.5,346.5C 139.11,347.391 139.443,348.391 139.5,349.5C 138.85,349.196 138.183,348.863 137.5,348.5C 134.225,357.567 132.059,366.9 131,376.5C 129.135,380.687 127.802,385.021 127,389.5C 126.333,390.167 125.667,390.833 125,391.5C 124.501,397.491 124.334,403.491 124.5,409.5C 116.933,399.38 109.6,389.047 102.5,378.5C 102.461,377.417 102.127,376.417 101.5,375.5C 102.254,372.223 102.754,368.89 103,365.5C 104.544,362.068 106.211,358.734 108,355.5C 109.237,348.086 110.903,340.752 113,333.5C 114.413,329.001 116.58,325.001 119.5,321.5 Z"/></g>
<g><path style="opacity:1" fill="#73c030" d="M 185.5,331.5 C 185.833,332.5 186.5,333.167 187.5,333.5C 188.974,334.436 189.974,335.77 190.5,337.5C 190.427,339.027 191.094,340.027 192.5,340.5C 193.974,341.436 194.974,342.77 195.5,344.5C 195.5,345.167 195.5,345.833 195.5,346.5C 195.333,373.502 195.5,400.502 196,427.5C 196.692,428.025 197.192,428.692 197.5,429.5C 196.731,432.51 195.897,435.51 195,438.5C 194.5,448.161 194.334,457.828 194.5,467.5C 190.5,467.5 186.5,467.5 182.5,467.5C 182.773,465.549 182.107,464.049 180.5,463C 181.428,462.612 182.095,461.945 182.5,461C 180.111,458.217 179.944,455.384 182,452.5C 182.333,442.833 182.667,433.167 183,423.5C 184.745,421.251 186.912,419.584 189.5,418.5C 187.808,416.641 186.308,414.641 185,412.5C 184.17,385.33 184.336,358.33 185.5,331.5 Z"/></g>
<g><path style="opacity:0.498" fill="#304d18" d="M 190.5,337.5 C 191.906,337.973 192.573,338.973 192.5,340.5C 191.094,340.027 190.427,339.027 190.5,337.5 Z"/></g>
<g><path style="opacity:1" fill="#3d5594" d="M 440.5,330.5 C 440.414,331.496 440.748,332.329 441.5,333C 453.358,342.358 465.358,351.525 477.5,360.5C 482.232,354.717 486.732,348.717 491,342.5C 489.986,345.479 490.652,348.146 493,350.5C 501.631,356.487 510.464,362.987 519.5,370C 522.375,371.302 525.375,372.135 528.5,372.5C 524.167,378.5 519.833,384.5 515.5,390.5C 502.91,381.093 490.076,371.76 477,362.5C 472.97,368.02 468.803,373.353 464.5,378.5C 452.043,369.215 439.709,359.715 427.5,350C 428.252,349.329 428.586,348.496 428.5,347.5C 431.765,341.299 435.765,335.632 440.5,330.5 Z"/></g>
<g><path style="opacity:1" fill="#4a91c9" d="M 370.5,341.5 C 371.272,342.694 372.272,343.694 373.5,344.5C 377.092,349.357 380.425,354.357 383.5,359.5C 382.883,359.389 382.383,359.056 382,358.5C 381.333,385.5 381.333,412.5 382,439.5C 384.033,441.35 384.033,442.016 382,441.5C 381.5,450.16 381.334,458.827 381.5,467.5C 377.5,467.5 373.5,467.5 369.5,467.5C 369.168,455.482 369.501,443.482 370.5,431.5C 372.098,429.027 373.598,429.027 375,431.5C 375.167,431.167 375.333,430.833 375.5,430.5C 373.862,427.696 372.029,425.029 370,422.5C 369.17,395.33 369.336,368.33 370.5,341.5 Z"/></g>
<g><path style="opacity:1" fill="#4064a2" d="M 302.5,329.5 C 304.5,331.833 306.5,334.167 308.5,336.5C 312.426,342.025 316.093,347.691 319.5,353.5C 318.883,353.389 318.383,353.056 318,352.5C 313.929,361.004 311.263,370.004 310,379.5C 309.333,380.167 308.667,380.833 308,381.5C 307.147,385.469 306.481,389.469 306,393.5C 304.437,398.444 302.603,403.11 300.5,407.5C 295.522,399.863 290.188,392.53 284.5,385.5C 283.139,383.15 281.806,380.816 280.5,378.5C 283.035,373.063 284.868,367.396 286,361.5C 287.987,357.845 290.154,354.345 292.5,351C 292.167,350.667 291.833,350.333 291.5,350C 293.696,342.429 296.863,335.263 301,328.5C 301.383,329.056 301.883,329.389 302.5,329.5 Z"/></g>
<g><path style="opacity:1" fill="#78c22f" d="M 195.5,346.5 C 196.167,346.833 196.833,347.167 197.5,347.5C 198.974,348.436 199.974,349.77 200.5,351.5C 200.427,353.027 201.094,354.027 202.5,354.5C 203.974,355.436 204.974,356.77 205.5,358.5C 205.557,359.609 205.89,360.609 206.5,361.5C 206.175,388.878 206.509,416.211 207.5,443.5C 207.154,444.696 206.654,444.696 206,443.5C 205.833,446.833 205.667,450.167 205.5,453.5C 205.27,459.066 205.937,463.733 207.5,467.5C 203.167,467.5 198.833,467.5 194.5,467.5C 194.334,457.828 194.5,448.161 195,438.5C 195.897,435.51 196.731,432.51 197.5,429.5C 197.192,428.692 196.692,428.025 196,427.5C 195.5,400.502 195.333,373.502 195.5,346.5 Z"/></g>
<g><path style="opacity:0.498" fill="#314d18" d="M 195.5,344.5 C 196.906,344.973 197.573,345.973 197.5,347.5C 196.833,347.167 196.167,346.833 195.5,346.5C 195.5,345.833 195.5,345.167 195.5,344.5 Z"/></g>
<g><path style="opacity:0.537" fill="#365218" d="M 200.5,351.5 C 201.906,351.973 202.573,352.973 202.5,354.5C 201.094,354.027 200.427,353.027 200.5,351.5 Z"/></g>
<g><path style="opacity:1" fill="#52b138" d="M 254.5,345.5 C 256.017,345.511 257.184,346.177 258,347.5C 259.03,349.346 260.196,351.013 261.5,352.5C 267.356,361.559 273.69,370.226 280.5,378.5C 281.806,380.816 283.139,383.15 284.5,385.5C 281.093,391.309 277.426,396.975 273.5,402.5C 267.409,411.013 261.076,419.346 254.5,427.5C 251.253,423.341 248.253,419.008 245.5,414.5C 245.5,395.833 245.5,377.167 245.5,358.5C 248.117,353.886 251.117,349.553 254.5,345.5 Z"/></g>
<g><path style="opacity:1" fill="#4b97ce" d="M 383.5,359.5 C 387.521,364.196 391.188,369.196 394.5,374.5C 393.336,401.664 393.17,428.997 394,456.5C 397.005,459.849 399.505,463.516 401.5,467.5C 394.833,467.5 388.167,467.5 381.5,467.5C 381.334,458.827 381.5,450.16 382,441.5C 384.033,442.016 384.033,441.35 382,439.5C 381.333,412.5 381.333,385.5 382,358.5C 382.383,359.056 382.883,359.389 383.5,359.5 Z"/></g>
<g><path style="opacity:0.537" fill="#365318" d="M 205.5,358.5 C 206.906,358.973 207.573,359.973 207.5,361.5C 207.167,361.5 206.833,361.5 206.5,361.5C 205.89,360.609 205.557,359.609 205.5,358.5 Z"/></g>
<g><path style="opacity:1" fill="#7ec42e" d="M 206.5,361.5 C 206.833,361.5 207.167,361.5 207.5,361.5C 208.974,362.436 209.974,363.77 210.5,365.5C 210.427,367.027 211.094,368.027 212.5,368.5C 213.974,369.436 214.974,370.77 215.5,372.5C 215.427,374.027 216.094,375.027 217.5,375.5C 218.906,375.973 219.573,376.973 219.5,378.5C 218.336,405.33 218.17,432.33 219,459.5C 221.054,462.047 222.887,464.714 224.5,467.5C 218.833,467.5 213.167,467.5 207.5,467.5C 205.937,463.733 205.27,459.066 205.5,453.5C 205.667,450.167 205.833,446.833 206,443.5C 206.654,444.696 207.154,444.696 207.5,443.5C 206.509,416.211 206.175,388.878 206.5,361.5 Z"/></g>
<g><path style="opacity:1" fill="#3b498a" d="M 428.5,347.5 C 428.586,348.496 428.252,349.329 427.5,350C 439.709,359.715 452.043,369.215 464.5,378.5C 464.5,379.167 464.5,379.833 464.5,380.5C 459.741,387.015 454.741,393.348 449.5,399.5C 438.02,390.197 426.353,381.03 414.5,372C 413.663,370.989 413.33,369.822 413.5,368.5C 418.119,361.216 423.119,354.216 428.5,347.5 Z"/></g>
<g><path style="opacity:1" fill="#44a538" d="M 245.5,358.5 C 245.5,377.167 245.5,395.833 245.5,414.5C 242.833,411.167 240.167,407.833 237.5,404.5C 233.414,397.993 229.08,391.66 224.5,385.5C 231.742,376.681 238.742,367.681 245.5,358.5 Z"/></g>
<g><path style="opacity:1" fill="#57ae37" d="M 139.5,349.5 C 145.496,356.843 151.163,364.51 156.5,372.5C 155.917,374.002 155.084,375.335 154,376.5C 153.667,381.167 153.333,385.833 153,390.5C 150.359,397.545 148.526,404.878 147.5,412.5C 146.722,421.164 146.056,429.83 145.5,438.5C 138.145,429.137 131.145,419.47 124.5,409.5C 124.334,403.491 124.501,397.491 125,391.5C 125.667,390.833 126.333,390.167 127,389.5C 127.802,385.021 129.135,380.687 131,376.5C 132.059,366.9 134.225,357.567 137.5,348.5C 138.183,348.863 138.85,349.196 139.5,349.5 Z"/></g>
<g><path style="opacity:1" fill="#426fac" d="M 319.5,353.5 C 323.74,358.317 327.74,363.317 331.5,368.5C 332.861,370.85 334.194,373.184 335.5,375.5C 334.542,375.047 333.708,374.381 333,373.5C 332.667,375.5 332.333,377.5 332,379.5C 329.667,381.167 327.333,382.833 325,384.5C 324.847,398.865 324.18,413.198 323,427.5C 322.028,429.305 320.861,430.972 319.5,432.5C 320.127,433.417 320.461,434.417 320.5,435.5C 318.167,432.833 315.833,430.167 313.5,427.5C 310.022,420.34 305.688,413.673 300.5,407.5C 302.603,403.11 304.437,398.444 306,393.5C 306.481,389.469 307.147,385.469 308,381.5C 308.667,380.833 309.333,380.167 310,379.5C 311.263,370.004 313.929,361.004 318,352.5C 318.383,353.056 318.883,353.389 319.5,353.5 Z"/></g>
<g><path style="opacity:0.537" fill="#385418" d="M 210.5,365.5 C 211.906,365.973 212.573,366.973 212.5,368.5C 211.094,368.027 210.427,367.027 210.5,365.5 Z"/></g>
<g><path style="opacity:1" fill="#384886" d="M 515.5,390.5 C 510.975,397.563 505.975,404.229 500.5,410.5C 488.019,401.754 475.685,392.754 463.5,383.5C 464.127,382.583 464.461,381.583 464.5,380.5C 464.5,379.833 464.5,379.167 464.5,378.5C 468.803,373.353 472.97,368.02 477,362.5C 490.076,371.76 502.91,381.093 515.5,390.5 Z"/></g>
<g><path style="opacity:0.537" fill="#395418" d="M 215.5,372.5 C 216.906,372.973 217.573,373.973 217.5,375.5C 216.094,375.027 215.427,374.027 215.5,372.5 Z"/></g>
<g><path style="opacity:1" fill="#383e7f" d="M 413.5,368.5 C 413.33,369.822 413.663,370.989 414.5,372C 426.353,381.03 438.02,390.197 449.5,399.5C 449.5,400.167 449.5,400.833 449.5,401.5C 443.147,409.569 436.814,417.569 430.5,425.5C 429.079,422.991 427.412,420.657 425.5,418.5C 417.141,406.482 408.808,394.482 400.5,382.5C 401.397,383.598 402.23,383.598 403,382.5C 406.277,377.586 409.777,372.92 413.5,368.5 Z"/></g>
<g><path style="opacity:1" fill="#65b833" d="M 161.5,297.5 C 166.601,302.936 170.934,308.936 174.5,315.5C 173.336,342.33 173.17,369.33 174,396.5C 175.167,398.333 176.333,400.167 177.5,402C 174.061,405.703 172.561,410.203 173,415.5C 172.333,416.167 171.667,416.833 171,417.5C 169.5,433.985 167.667,450.318 165.5,466.5C 162.677,463.525 160.344,460.192 158.5,456.5C 157.374,444.546 157.208,432.546 158,420.5C 159,417.167 160,413.833 161,410.5C 161.749,401.426 162.916,392.426 164.5,383.5C 163.139,381.972 161.972,380.305 161,378.5C 160.17,351.33 160.336,324.33 161.5,297.5 Z"/></g>
<g><path style="opacity:1" fill="#469c3d" d="M 284.5,385.5 C 290.188,392.53 295.522,399.863 300.5,407.5C 305.688,413.673 310.022,420.34 313.5,427.5C 309.554,434.405 304.887,440.738 299.5,446.5C 297.401,441.714 295.568,436.714 294,431.5C 289.888,428.618 286.222,425.285 283,421.5C 283.225,418.175 281.892,415.842 279,414.5C 279.239,410.816 277.739,408.149 274.5,406.5C 273.571,405.311 273.238,403.978 273.5,402.5C 277.426,396.975 281.093,391.309 284.5,385.5 Z"/></g>
<g><path style="opacity:1" fill="#8aca2c" d="M 219.5,378.5 C 221.9,380.296 223.567,382.63 224.5,385.5C 229.08,391.66 233.414,397.993 237.5,404.5C 237.5,425.5 237.5,446.5 237.5,467.5C 233.167,467.5 228.833,467.5 224.5,467.5C 222.887,464.714 221.054,462.047 219,459.5C 218.17,432.33 218.336,405.33 219.5,378.5 Z"/></g>
<g><path style="opacity:1" fill="#457cb7" d="M 335.5,375.5 C 339.167,380.167 342.833,384.833 346.5,389.5C 349.243,393.979 352.243,398.312 355.5,402.5C 355.154,403.696 354.654,403.696 354,402.5C 353.964,404.941 353.131,406.941 351.5,408.5C 350.675,412.122 350.175,415.789 350,419.5C 349.535,420.931 348.701,422.097 347.5,423C 347.833,423.333 348.167,423.667 348.5,424C 347.485,438.431 346.152,452.931 344.5,467.5C 343.833,467.167 343.167,466.833 342.5,466.5C 334.921,456.342 327.588,446.009 320.5,435.5C 320.461,434.417 320.127,433.417 319.5,432.5C 320.861,430.972 322.028,429.305 323,427.5C 324.18,413.198 324.847,398.865 325,384.5C 327.333,382.833 329.667,381.167 332,379.5C 332.333,377.5 332.667,375.5 333,373.5C 333.708,374.381 334.542,375.047 335.5,375.5 Z"/></g>
<g><path style="opacity:1" fill="#353c79" d="M 464.5,380.5 C 464.461,381.583 464.127,382.583 463.5,383.5C 475.685,392.754 488.019,401.754 500.5,410.5C 496.004,418.151 491.004,425.485 485.5,432.5C 472.971,424.318 460.971,415.318 449.5,405.5C 448.708,404.3 448.708,402.967 449.5,401.5C 449.5,400.833 449.5,400.167 449.5,399.5C 454.741,393.348 459.741,387.015 464.5,380.5 Z"/></g>
<g><path style="opacity:1" fill="#4ea4d9" d="M 394.5,374.5 C 396.853,376.86 398.853,379.527 400.5,382.5C 408.808,394.482 417.141,406.482 425.5,418.5C 424.504,434.658 424.17,450.991 424.5,467.5C 416.833,467.5 409.167,467.5 401.5,467.5C 399.505,463.516 397.005,459.849 394,456.5C 393.17,428.997 393.336,401.664 394.5,374.5 Z"/></g>
<g><path style="opacity:1" fill="#6cbc32" d="M 174.5,315.5 C 178.521,320.196 182.188,325.196 185.5,330.5C 185.5,330.833 185.5,331.167 185.5,331.5C 184.336,358.33 184.17,385.33 185,412.5C 186.308,414.641 187.808,416.641 189.5,418.5C 186.912,419.584 184.745,421.251 183,423.5C 182.667,433.167 182.333,442.833 182,452.5C 179.944,455.384 180.111,458.217 182.5,461C 182.095,461.945 181.428,462.612 180.5,463C 182.107,464.049 182.773,465.549 182.5,467.5C 177.167,467.5 171.833,467.5 166.5,467.5C 165.833,467.5 165.5,467.167 165.5,466.5C 167.667,450.318 169.5,433.985 171,417.5C 171.667,416.833 172.333,416.167 173,415.5C 172.561,410.203 174.061,405.703 177.5,402C 176.333,400.167 175.167,398.333 174,396.5C 173.17,369.33 173.336,342.33 174.5,315.5 Z"/></g>
<g><path style="opacity:1" fill="#333470" d="M 449.5,401.5 C 448.708,402.967 448.708,404.3 449.5,405.5C 460.971,415.318 472.971,424.318 485.5,432.5C 477.733,443.715 469.733,454.715 461.5,465.5C 460.833,465.5 460.5,465.833 460.5,466.5C 450.268,453.049 440.268,439.382 430.5,425.5C 436.814,417.569 443.147,409.569 449.5,401.5 Z"/></g>
<g><path style="opacity:1" fill="#398b3b" d="M 273.5,402.5 C 273.238,403.978 273.571,405.311 274.5,406.5C 277.739,408.149 279.239,410.816 279,414.5C 281.892,415.842 283.225,418.175 283,421.5C 286.222,425.285 289.888,428.618 294,431.5C 295.568,436.714 297.401,441.714 299.5,446.5C 295.135,454.045 290.135,461.212 284.5,468C 244.998,468.831 205.665,468.665 166.5,467.5C 171.833,467.5 177.167,467.5 182.5,467.5C 186.5,467.5 190.5,467.5 194.5,467.5C 198.833,467.5 203.167,467.5 207.5,467.5C 213.167,467.5 218.833,467.5 224.5,467.5C 228.833,467.5 233.167,467.5 237.5,467.5C 252.515,467.833 267.515,467.499 282.5,466.5C 273.142,453.482 263.808,440.482 254.5,427.5C 261.076,419.346 267.409,411.013 273.5,402.5 Z"/></g>
<g><path style="opacity:1" fill="#97d029" d="M 237.5,404.5 C 240.167,407.833 242.833,411.167 245.5,414.5C 248.253,419.008 251.253,423.341 254.5,427.5C 263.808,440.482 273.142,453.482 282.5,466.5C 267.515,467.499 252.515,467.833 237.5,467.5C 237.5,446.5 237.5,425.5 237.5,404.5 Z"/></g>
<g><path style="opacity:1" fill="#498bc5" d="M 359.5,326.5 C 363.521,331.196 367.188,336.196 370.5,341.5C 369.336,368.33 369.17,395.33 370,422.5C 372.029,425.029 373.862,427.696 375.5,430.5C 375.333,430.833 375.167,431.167 375,431.5C 373.598,429.027 372.098,429.027 370.5,431.5C 369.501,443.482 369.168,455.482 369.5,467.5C 365.5,467.5 361.5,467.5 357.5,467.5C 357.717,459.313 357.717,451.313 357.5,443.5C 359.017,436.255 359.85,428.922 360,421.5C 360.197,418.308 361.03,415.308 362.5,412.5C 361.333,410.833 360.167,409.167 359,407.5C 358.17,380.33 358.336,353.33 359.5,326.5 Z"/></g>
<g><path style="opacity:1" fill="#51b3e4" d="M 425.5,418.5 C 427.412,420.657 429.079,422.991 430.5,425.5C 440.268,439.382 450.268,453.049 460.5,466.5C 448.678,467.495 436.678,467.828 424.5,467.5C 424.17,450.991 424.504,434.658 425.5,418.5 Z"/></g>
<g><path style="opacity:0.063" fill="#0c141a" d="M 461.5,465.5 C 461.5,466.5 461.5,467.5 461.5,468.5C 421.486,469.161 381.819,468.494 342.5,466.5C 343.167,466.833 343.833,467.167 344.5,467.5C 348.833,467.5 353.167,467.5 357.5,467.5C 361.5,467.5 365.5,467.5 369.5,467.5C 373.5,467.5 377.5,467.5 381.5,467.5C 388.167,467.5 394.833,467.5 401.5,467.5C 409.167,467.5 416.833,467.5 424.5,467.5C 436.678,467.828 448.678,467.495 460.5,466.5C 460.5,465.833 460.833,465.5 461.5,465.5 Z"/></g>
</svg>
