<?xml version="1.0" encoding="UTF-8"?>
<svg version="1.1" xmlns="http://www.w3.org/2000/svg" width="628" height="476">
<path d="M0 0 C0.97690292 -0.02449722 1.95380585 -0.04899445 2.96031189 -0.07423401 C4.04125122 -0.09577545 5.12219055 -0.11731689 6.23588562 -0.13951111 C7.93357338 -0.17828117 7.93357338 -0.17828117 9.66555786 -0.21783447 C20.14156993 -0.44391316 30.6191423 -0.57943263 41.09701252 -0.6832056 C48.13811997 -0.7545153 55.1760923 -0.85577779 62.21537781 -1.03404236 C69.01850144 -1.20631289 75.81849759 -1.29351376 82.62369347 -1.32905388 C85.21272296 -1.35600644 87.8016237 -1.41075271 90.38944435 -1.49432564 C110.13127841 -2.10311664 110.13127841 -2.10311664 115.73267937 1.79512215 C119.48673908 5.49559583 122.11307908 9.67135385 124.49687195 14.34626007 C125.79770692 16.8340767 127.40849607 19.02950506 129.10185242 21.26307678 C130.04321581 22.60372988 130.98218265 23.94607033 131.91825867 25.29042053 C133.32611649 27.30028523 134.73442168 29.30982771 136.14433289 31.31825256 C137.05737015 32.62292511 137.96501713 33.93138222 138.8679657 35.24305725 C141.16403746 38.78023535 141.16403746 38.78023535 144.48075867 41.22792053 C144.69989929 40.55245178 144.91903992 39.87698303 145.14482117 39.18104553 C146.88342704 35.33781151 149.27736727 32.29661382 151.85575867 28.97792053 C156.93192223 22.34321065 161.80613671 15.59532034 166.55839539 8.72499084 C167.02906433 8.04919983 167.49973328 7.37340881 167.98466492 6.67713928 C168.60063538 5.78514832 168.60063538 5.78514832 169.22904968 4.87513733 C172.63788816 0.38919366 172.63788816 0.38919366 175.64361477 -0.18591595 C176.4880618 -0.20393167 177.33250883 -0.22194738 178.20254517 -0.24050903 C179.17378326 -0.26775558 180.14502136 -0.29500214 181.14569092 -0.32307434 C182.74228798 -0.34460068 182.74228798 -0.34460068 184.37113953 -0.36656189 C186.05463501 -0.40577003 186.05463501 -0.40577003 187.7721405 -0.44577026 C191.49655958 -0.52547706 195.22064094 -0.57986967 198.94560242 -0.62754822 C200.21868319 -0.6447674 201.49176395 -0.66198658 202.80342293 -0.67972755 C208.15893129 -0.74809561 213.51431653 -0.80983477 218.87012386 -0.84746838 C226.52346055 -0.90172304 234.17164334 -1.00966927 241.82299322 -1.19370764 C247.86678192 -1.33407308 253.90824126 -1.38550733 259.95375252 -1.40693092 C262.51480991 -1.42886487 265.07579047 -1.47801736 267.6357708 -1.55545616 C287.13815958 -2.11225344 287.13815958 -2.11225344 292.7209053 1.79626083 C296.46703261 5.49686057 299.10446938 9.67144852 301.49454021 14.33786774 C302.80437475 16.84811932 304.40934893 19.09878544 306.07450867 21.38417053 C307.04616453 22.83013876 308.01498068 24.27801981 308.98075867 25.72792053 C313.48712993 32.40286828 318.16156109 38.90270622 323.03373718 45.31434631 C327.11779799 50.70205919 331.0307353 56.19641329 334.91069031 61.73231506 C338.55622299 66.93041021 342.25394293 72.0878289 345.98075867 77.22792053 C350.69137034 83.72835481 355.34373688 90.26656237 359.96122742 96.83338928 C363.59530433 101.99358773 367.27747267 107.11720993 370.98075867 112.22792053 C375.1876179 118.03358613 379.35671139 123.86313772 383.48075867 129.72792053 C389.73508743 138.61868625 396.10191397 147.42625054 402.48075867 156.22792053 C409.36340325 165.72474467 416.21497806 175.23948563 422.96147156 184.83363342 C427.12605197 190.74740594 431.35876882 196.61015843 435.60331726 202.46669006 C439.98869921 208.52584155 444.31337875 214.62622384 448.61161804 220.74745178 C449.30867859 221.73938538 449.30867859 221.73938538 450.01982117 222.75135803 C450.44811218 223.36205139 450.8764032 223.97274475 451.31767273 224.60194397 C452.28373181 225.95247996 453.2948491 227.27064913 454.31669617 228.57948303 C455.48075867 230.22792053 455.48075867 230.22792053 455.48075867 232.22792053 C454.49075867 232.22792053 453.50075867 232.22792053 452.48075867 232.22792053 C452.26032898 232.90596741 452.03989929 233.58401428 451.81278992 234.28260803 C450.09249678 238.08642335 447.72613727 241.07400728 445.16825867 244.35292053 C440.57208762 250.35254527 436.20618546 256.46203979 431.98075867 262.72792053 C427.50075089 269.35899822 422.85225623 275.80672188 418.00028992 282.16932678 C414.15610486 287.24445824 410.5452498 292.4534263 406.98075867 297.72792053 C402.46991634 304.39997065 397.8001282 310.90247994 392.92778015 317.31434631 C388.84371934 322.70205919 384.93078203 328.19641329 381.05082703 333.73231506 C377.40529434 338.93041021 373.7075744 344.0878289 369.98075867 349.22792053 C365.77371792 355.03344937 361.60466821 360.86304653 357.48075867 366.72792053 C352.81939118 373.35714765 348.09131436 379.93520591 343.33622742 386.49745178 C339.68080279 391.54874261 336.06717905 396.62744405 332.48075867 401.72792053 C328.35684666 407.59279803 324.18757504 413.42222653 319.98075867 419.22792053 C315.20981148 425.81295123 310.48854382 432.43039872 305.81352234 439.08387756 C303.40978636 442.50329364 300.99389647 445.91222479 298.54325867 449.29823303 C297.84752747 450.26164612 297.84752747 450.26164612 297.13774109 451.24452209 C296.26611191 452.44932349 295.39145494 453.65194244 294.51322937 454.85194397 C292.7335806 457.31498678 291.44941502 459.32195148 290.48075867 462.22792053 C251.21075867 462.22792053 211.94075867 462.22792053 171.48075867 462.22792053 C169.50075867 458.76292053 169.50075867 458.76292053 167.48075867 455.22792053 C166.64724438 454.01073926 165.78816201 452.80997232 164.88700867 451.64198303 C164.41940125 451.02903381 163.95179382 450.41608459 163.47001648 449.78456116 C162.9785614 449.14711975 162.48710632 448.50967834 161.98075867 447.85292053 C155.59431896 439.46297031 149.51525744 430.87308899 143.48075867 422.22792053 C140.22750301 426.24845347 137.08685242 430.3435886 133.98075867 434.47792053 C133.46465027 435.16450745 132.94854187 435.85109436 132.41679382 436.55848694 C127.92957208 442.56179024 123.59390468 448.66575114 119.31474304 454.81874084 C118.84101257 455.49775452 118.3672821 456.17676819 117.87919617 456.87635803 C117.46331238 457.47625549 117.04742859 458.07615295 116.61894226 458.69422913 C115.48075867 460.22792053 115.48075867 460.22792053 113.48075867 462.22792053 C111.41415977 462.50194931 111.41415977 462.50194931 108.81434631 462.53572083 C107.83028809 462.55292175 106.84622986 462.57012268 105.83235168 462.58784485 C104.20690933 462.60062469 104.20690933 462.60062469 102.54862976 462.61366272 C101.41026672 462.6300177 100.27190369 462.64637268 99.0990448 462.66322327 C95.3174502 462.71300075 91.53600626 462.74598327 87.75419617 462.77479553 C85.81916166 462.79076656 85.81916166 462.79076656 83.84503555 462.80706024 C78.42175638 462.84953809 72.99852631 462.887795 67.57512474 462.91030502 C59.81104006 462.94274411 52.04896379 463.00897728 44.28563631 463.12310672 C38.16348142 463.21002597 32.04211043 463.24181278 25.91937637 463.25457001 C23.31896814 463.26800352 20.71858959 463.29847084 18.11858749 463.34635162 C14.47393019 463.40963111 10.83431757 463.40973836 7.18925476 463.39491272 C6.11777191 463.42772339 5.04628906 463.46053406 3.94233704 463.49433899 C-0.66633021 463.41773961 -3.4144148 463.22420625 -6.91645432 460.06621552 C-8.96499676 457.53457259 -10.76571583 454.96993707 -12.51924133 452.22792053 C-13.49593412 450.86914501 -14.47768402 449.51396141 -15.46846008 448.16542053 C-16.38418475 446.85498696 -17.29688896 445.54243812 -18.20674133 444.22792053 C-19.24100419 442.74812905 -20.27619243 441.268984 -21.31221008 439.79042053 C-22.10184143 438.66313538 -22.10184143 438.66313538 -22.90742493 437.51307678 C-25.57783695 433.72709428 -28.29889538 429.97810303 -31.01924133 426.22792053 C-35.73001202 419.72760288 -40.38222117 413.18927638 -44.99971008 406.62245178 C-48.633787 401.46225333 -52.31595534 396.33863113 -56.01924133 391.22792053 C-60.22610057 385.42225494 -64.39519406 379.59270334 -68.51924133 373.72792053 C-74.7735701 364.83715481 -81.14039663 356.02959052 -87.51924133 347.22792053 C-94.4003406 337.73322866 -101.24984832 328.22027065 -107.99555969 318.62879944 C-112.21784895 312.63385692 -116.50425448 306.68670826 -120.80439758 300.74745178 C-124.4617957 295.69550619 -128.09671868 290.62835131 -131.7155304 285.54872131 C-134.53907556 281.58964455 -137.38334961 277.64599971 -140.23506165 273.70716858 C-146.11427521 265.58648321 -151.95642426 257.44210329 -157.69892883 249.22401428 C-159.53687758 246.5988256 -161.4154079 244.01318319 -163.33955383 241.45057678 C-163.77235657 240.86187805 -164.2051593 240.27317932 -164.65107727 239.66664124 C-165.81175133 238.08997539 -166.98910539 236.52562662 -168.16767883 234.96229553 C-169.51924133 232.22792053 -169.51924133 232.22792053 -168.78096008 229.80995178 C-167.58703531 227.36665681 -166.31900629 225.34686117 -164.68330383 223.18104553 C-163.83820251 222.05073914 -163.83820251 222.05073914 -162.97602844 220.89759827 C-162.06929382 219.69985779 -162.06929382 219.69985779 -161.14424133 218.47792053 C-159.86549087 216.76673127 -158.58817241 215.05447105 -157.31221008 213.34120178 C-156.67202942 212.48220276 -156.03184875 211.62320374 -155.37226868 210.73817444 C-152.67685063 207.08675305 -150.06023851 203.38269923 -147.45674133 199.66542053 C-143.35660352 193.81900357 -139.21024089 188.00957374 -135.01924133 182.22792053 C-130.81227147 176.42233959 -126.64315164 170.59279561 -122.51924133 164.72792053 C-117.85787384 158.09869342 -113.12979703 151.52063516 -108.37471008 144.95838928 C-104.71928546 139.90709845 -101.10566172 134.82839702 -97.51924133 129.72792053 C-92.85787384 123.09869342 -88.12979703 116.52063516 -83.37471008 109.95838928 C-79.71928417 104.90709668 -76.10577979 99.82831528 -72.51924133 94.72792053 C-65.72713663 85.0726859 -58.8010392 75.51586121 -51.87373352 65.95741272 C-45.54250449 57.21858619 -39.25089119 48.45567404 -33.04292297 39.62879944 C-28.82941372 33.64632306 -24.55282496 27.71087094 -20.26045227 21.7848053 C-16.31362194 16.33484848 -12.39409067 10.86618521 -8.50117493 5.37757874 C-4.75525669 0.1106243 -4.75525669 0.1106243 0 0 Z M53.48075867 84.22792053 C52.17977537 85.64127025 52.17977537 85.64127025 50.89872742 87.53260803 C50.38559998 88.25198547 49.87247253 88.97136292 49.34379578 89.71253967 C48.79086853 90.50136536 48.23794128 91.29019104 47.66825867 92.10292053 C46.48617527 93.76582902 45.30387772 95.42858529 44.12138367 97.09120178 C43.51616882 97.94665588 42.91095398 98.80210999 42.28739929 99.68348694 C40.05559875 102.82670656 37.79494583 105.94828835 35.5308075 109.06825256 C30.29546951 116.28279402 25.12739441 123.54206178 20.00004578 130.83363342 C15.82820793 136.75771161 11.5876249 142.63032129 7.33622742 148.49745178 C3.68080279 153.54874261 0.06717905 158.62744405 -3.51924133 163.72792053 C-8.18060882 170.35714765 -12.90868564 176.93520591 -17.66377258 183.49745178 C-21.8167453 189.2362852 -25.91153445 195.01394013 -29.98213196 200.81141663 C-32.63226009 204.5786352 -35.30762192 208.32497099 -38.01924133 212.04823303 C-38.60318665 212.85067444 -39.18713196 213.65311584 -39.78877258 214.47987366 C-40.90801682 216.0147289 -42.03021799 217.54743415 -43.15596008 219.07752991 C-46.25507723 223.32808227 -48.99799206 227.60967066 -51.51924133 232.22792053 C-51.19351135 232.67893127 -50.86778137 233.12994202 -50.53218079 233.59461975 C-50.07029358 234.23415588 -49.60840637 234.87369202 -49.13252258 235.53260803 C-48.61294983 236.25198547 -48.09337708 236.97136292 -47.55805969 237.71253967 C-46.39078631 239.32882785 -45.22363464 240.94520392 -44.05659485 242.56166077 C-41.10160293 246.6542515 -38.14508444 250.74570818 -35.18330383 254.83338928 C-29.41757241 262.7952999 -23.69807233 270.7861992 -18.04292297 278.82704163 C-13.82063372 284.82198414 -9.53422819 290.76913281 -5.23408508 296.70838928 C-1.57668697 301.76033488 2.05823601 306.82748975 5.67704773 311.90711975 C9.04820169 316.63403451 12.45091816 321.33773494 15.85575867 326.04042053 C20.60184828 332.59824927 25.29304424 339.19200664 29.94755554 345.81507874 C34.22113667 351.8860197 38.56600193 357.90402983 42.94169617 363.90174866 C46.59058746 368.92362839 50.07224136 374.04005708 53.48075867 379.22792053 C57.78781922 375.19847898 61.14226197 370.78476582 64.54325867 365.97792053 C65.68121685 364.37501147 66.81923936 362.77214807 67.95732117 361.16932678 C68.53514343 360.35351135 69.1129657 359.53769592 69.70829773 358.69715881 C71.4624134 356.25347756 73.25721828 353.84565177 75.06669617 351.44276428 C75.62993591 350.68189514 76.19317566 349.921026 76.77348328 349.13710022 C77.85162313 347.68080325 78.94320907 346.23434433 80.04936218 344.79920959 C82.87077358 341.14808103 82.87077358 341.14808103 83.16435242 336.76307678 C80.73028264 333.09785338 78.22690171 329.51221642 75.60575867 325.97792053 C74.42002822 324.35873973 73.23515136 322.73893353 72.05107117 321.11854553 C71.45197937 320.30063538 70.85288757 319.48272522 70.23564148 318.64002991 C67.6100145 315.03107128 65.04375231 311.381495 62.48075867 307.72792053 C58.35756273 301.86254831 54.18760827 296.03357283 49.98075867 290.22792053 C45.27250335 283.73030453 40.62140674 277.19568361 36.00688171 270.63124084 C32.859487 266.16116321 29.67802542 261.71757901 26.4695282 257.29115295 C24.82699818 255.02448067 23.19050299 252.75355635 21.55497742 250.48182678 C19.59874034 247.76561271 17.62189805 245.06690242 15.62528992 242.38026428 C14.78492778 241.2256935 13.9450503 240.07076973 13.10575867 238.91542053 C12.37614929 237.92928772 11.64653992 236.94315491 10.89482117 235.92713928 C9.48075867 233.22792053 9.48075867 233.22792053 9.42607117 230.85292053 C10.9747095 226.9985318 13.28042466 223.87605634 15.73075867 220.54042053 C16.26580017 219.79783997 16.80084167 219.0552594 17.35209656 218.29017639 C18.48452729 216.72051117 19.6207657 215.15358689 20.76054382 213.58924866 C22.41877574 211.3130041 24.06680466 209.02977992 25.71122742 206.74354553 C29.50466864 201.47310943 33.31562556 196.21541874 37.12626648 190.95741272 C43.45749551 182.21858619 49.74910881 173.45567404 55.95707703 164.62879944 C59.63598483 159.40536744 63.36138529 154.21707988 67.10575867 149.04042053 C67.64345886 148.29389221 68.18115906 147.54736389 68.7351532 146.7782135 C71.31302661 143.20275719 73.90963047 139.645413 76.55888367 136.12245178 C77.032453 135.48396301 77.50602234 134.84547424 77.99394226 134.18763733 C78.87713634 132.99774786 79.77017034 131.81507525 80.67460632 130.64125061 C82.93432594 127.75826626 82.93432594 127.75826626 83.22441101 124.26893616 C82.44817464 122.13849097 81.53712484 120.58951126 80.21513367 118.75135803 C79.50719666 117.75773254 79.50719666 117.75773254 78.78495789 116.74403381 C78.01562927 115.68418274 78.01562927 115.68418274 77.23075867 114.60292053 C76.44016052 113.4985968 76.44016052 113.4985968 75.6335907 112.3719635 C73.92257251 109.98579494 72.20238436 107.60644483 70.48075867 105.22792053 C69.27483992 103.55618227 68.069111 101.88430706 66.86357117 100.21229553 C65.13522493 97.81645989 63.40558656 95.42162526 61.67118835 93.03016663 C61.15201843 92.31425354 60.63284851 91.59834045 60.09794617 90.86073303 C59.64016785 90.2305426 59.18238953 89.60035217 58.71073914 88.95106506 C57.6026306 87.39865735 56.53875012 85.81490771 55.48075867 84.22792053 C54.82075867 84.22792053 54.16075867 84.22792053 53.48075867 84.22792053 Z M230.48075867 84.22792053 C229.14432414 85.78948224 229.14432414 85.78948224 227.82841492 87.85682678 C227.30433044 88.63767639 226.78024597 89.418526 226.24028015 90.22303772 C225.68026306 91.07027405 225.12024597 91.91751038 224.54325867 92.79042053 C219.88378022 99.73630785 215.12935219 106.56987538 210.08451843 113.24183655 C207.20892286 117.08503643 204.79322789 121.01954698 202.48075867 125.22792053 C209.11746133 135.0892723 215.83809469 144.84528805 223.0308075 154.31044006 C227.11580004 159.69949565 231.02979716 165.19507476 234.91069031 170.73231506 C238.55622299 175.93041021 242.25394293 181.0878289 245.98075867 186.22792053 C250.6835439 192.71755467 255.34642959 199.23281335 259.9304657 205.80702209 C262.61086902 209.63770187 265.35501807 213.40172106 268.19169617 217.11854553 C268.80271179 217.93001038 269.41372742 218.74147522 270.04325867 219.57752991 C271.22877222 221.14756887 272.42882255 222.7067627 273.64482117 224.25331116 C277.56473652 229.48145069 277.56473652 229.48145069 277.19950867 232.72792053 C276.63232117 233.55292053 276.06513367 234.37792053 275.48075867 235.22792053 C275.08066589 235.81992249 274.68057312 236.41192444 274.26835632 237.02186584 C272.75810723 239.20876113 271.18889928 241.34324598 269.60575867 243.47792053 C268.42002822 245.09710134 267.23515136 246.71690753 266.05107117 248.33729553 C265.45197937 249.15520569 264.85288757 249.97311584 264.23564148 250.81581116 C261.61001404 254.42477042 259.04378267 258.07436672 256.48075867 261.72792053 C251.77120688 268.42631386 246.99758223 275.07600775 242.19560242 281.70838928 C238.94125162 286.20360765 235.70078439 290.70805586 232.48075867 295.22792053 C229.25981931 299.74906765 226.01931602 304.25542053 222.76225281 308.75062561 C221.11251775 311.03107736 219.47046846 313.316934 217.82841492 315.60292053 C215.55935516 318.75591657 213.25039391 321.8742769 210.91435242 324.97792053 C209.79049266 326.49863427 208.66678895 328.01946336 207.54325867 329.54042053 C207.00459167 330.23949524 206.46592468 330.93856995 205.91093445 331.65882874 C203.06860275 335.33508276 203.06860275 335.33508276 202.82841492 339.75526428 C205.05924266 343.09359516 207.39227205 346.30751358 209.85575867 349.47792053 C214.95071259 356.13016464 219.82871391 362.90179127 224.55839539 369.81874084 C225.02906433 370.49775452 225.49973328 371.17676819 225.98466492 371.87635803 C226.39531189 372.47625549 226.80595886 373.07615295 227.22904968 373.69422913 C228.58619088 375.51045819 228.58619088 375.51045819 231.48075867 377.22792053 C231.80648865 376.77690979 232.13221863 376.32589905 232.46781921 375.86122131 C233.45917806 374.48857061 234.4505534 373.11593183 235.44194031 371.74330139 C236.60921369 370.12701322 237.77636536 368.51063714 238.94340515 366.8941803 C241.89839707 362.80158957 244.85491556 358.71013289 247.81669617 354.62245178 C253.0805112 347.35363857 258.31690947 340.06816979 263.48075867 332.72792053 C270.27308691 323.07283952 277.19895781 313.51586533 284.12626648 303.95741272 C290.4590413 295.21645258 296.75266211 286.4517182 302.96147156 277.62220764 C307.12663754 271.70760361 311.35932987 265.84356214 315.60551453 259.98695374 C319.96724419 253.96223664 324.26405708 247.89356529 328.52372742 241.79627991 C331.06492688 238.17258626 333.66792351 234.64965177 336.48075867 231.22792053 C334.30128078 226.66539415 331.46260006 222.6375345 328.60575867 218.47792053 C328.02568054 217.63100647 327.44560242 216.78409241 326.84794617 215.91151428 C322.71463661 209.91821542 318.41625434 204.0779099 314.00273132 198.28944397 C309.56599059 192.43288807 305.44919562 186.38073816 301.33622742 180.29432678 C297.85130536 175.16259191 294.24195785 170.16015271 290.48075867 165.22792053 C286.12415447 159.51490658 282.00353457 153.68055374 277.98075867 147.72792053 C273.46991634 141.05587041 268.8001282 134.55336113 263.92778015 128.14149475 C259.85134398 122.76384034 255.94479068 117.28037682 252.07279968 111.75428772 C247.66496782 105.46793333 243.17701182 99.24168592 238.66850281 93.02723694 C238.15021912 92.31229065 237.63193542 91.59734436 237.09794617 90.86073303 C236.64016785 90.2305426 236.18238953 89.60035217 235.71073914 88.95106506 C234.6026306 87.39865735 233.53875012 85.81490771 232.48075867 84.22792053 C231.82075867 84.22792053 231.16075867 84.22792053 230.48075867 84.22792053 Z M142.48075867 207.22792053 C141.49815353 208.53933072 140.56184888 209.8854698 139.64482117 211.24354553 C138.79017273 212.50231506 138.79017273 212.50231506 137.91825867 213.78651428 C137.32013367 214.67467834 136.72200867 215.56284241 136.10575867 216.47792053 C134.93206841 218.2128295 133.75761497 219.94722247 132.58232117 221.68104553 C131.7984906 222.84361877 131.7984906 222.84361877 130.99882507 224.02967834 C129.48075867 226.22792053 129.48075867 226.22792053 127.72441101 228.26210022 C126.27703646 230.12150227 126.27703646 230.12150227 126.61601257 232.21400452 C127.61462671 234.5396872 128.82533165 236.40381869 130.31669617 238.45057678 C131.1713446 239.62910217 131.1713446 239.62910217 132.04325867 240.83143616 C132.64138367 241.642901 133.23950867 242.45436584 133.85575867 243.29042053 C134.7413446 244.51341858 134.7413446 244.51341858 135.64482117 245.76112366 C138.10092065 249.12719693 140.45660441 252.34677769 143.48075867 255.22792053 C145.38214204 252.73209941 147.27578956 250.23050571 149.16825867 247.72792053 C149.69870789 247.03182678 150.2291571 246.33573303 150.77568054 245.61854553 C154.28252597 240.97143748 157.48263268 236.21836043 160.48075867 231.22792053 C158.58526272 228.54018243 156.68929915 225.85277451 154.79325867 223.16542053 C154.26280945 222.41325256 153.73236023 221.66108459 153.18583679 220.88612366 C152.12990138 219.38967531 151.07278375 217.89406043 150.01445007 216.39930725 C149.00646009 214.97220396 148.00336993 213.54162484 147.00566101 212.10731506 C145.8548294 210.46368402 144.67121638 208.84308208 143.48075867 207.22792053 C143.15075867 207.22792053 142.82075867 207.22792053 142.48075867 207.22792053 Z " fill="#449F3B" transform="translate(171.5192413330078,6.7720794677734375)"/>
<path d="M0 0 C0.9712381 -0.02724655 1.9424762 -0.0544931 2.94314575 -0.08256531 C4.00754379 -0.0969162 5.07194183 -0.11126709 6.16859436 -0.12605286 C7.85208984 -0.165261 7.85208984 -0.165261 9.56959534 -0.20526123 C13.29401441 -0.28496803 17.01809577 -0.33936063 20.74305725 -0.38703918 C22.01613802 -0.40425837 23.28921879 -0.42147755 24.60087776 -0.43921852 C29.95638613 -0.50758658 35.31177136 -0.56932574 40.6675787 -0.60695934 C48.32091538 -0.66121401 55.96909817 -0.76916024 63.62044805 -0.95319861 C69.66423676 -1.09356405 75.7056961 -1.1449983 81.75120735 -1.16642189 C84.31226474 -1.18835584 86.8732453 -1.23750833 89.43322563 -1.31494713 C108.93561442 -1.87174441 108.93561442 -1.87174441 114.51836014 2.03676987 C118.26448744 5.7373696 120.90192422 9.91195756 123.29199505 14.57837677 C124.60182959 17.08862836 126.20680376 19.33929447 127.8719635 21.62467957 C128.84361936 23.0706478 129.81243552 24.51852884 130.7782135 25.96842957 C135.28458476 32.64337732 139.95901592 39.14321525 144.83119202 45.55485535 C148.91525283 50.94256823 152.82819014 56.43692232 156.70814514 61.9728241 C160.35367782 67.17091924 164.05139777 72.32833794 167.7782135 77.46842957 C172.48882517 83.96886385 177.14119171 90.5070714 181.75868225 97.07389832 C185.39275916 102.23409677 189.07492751 107.35771897 192.7782135 112.46842957 C196.98507274 118.27409516 201.15416623 124.10364675 205.2782135 129.96842957 C211.53254227 138.85919529 217.8993688 147.66675958 224.2782135 156.46842957 C231.16085809 165.9652537 238.0124329 175.47999466 244.75892639 185.07414246 C248.92350681 190.98791498 253.15622365 196.85066746 257.40077209 202.7071991 C261.78615404 208.76635058 266.11083358 214.86673287 270.40907288 220.98796082 C271.10613342 221.97989441 271.10613342 221.97989441 271.817276 222.99186707 C272.24556702 223.60256042 272.67385803 224.21325378 273.11512756 224.842453 C274.08118664 226.192989 275.09230393 227.51115816 276.114151 228.81999207 C277.2782135 230.46842957 277.2782135 230.46842957 277.2782135 232.46842957 C276.2882135 232.46842957 275.2982135 232.46842957 274.2782135 232.46842957 C274.05778381 233.14647644 273.83735413 233.82452332 273.61024475 234.52311707 C271.88995162 238.32693238 269.5235921 241.31451631 266.9657135 244.59342957 C262.36954245 250.5930543 258.00364029 256.70254882 253.7782135 262.96842957 C249.29820572 269.59950725 244.64971107 276.04723091 239.79774475 282.40983582 C235.95355969 287.48496728 232.34270463 292.69393534 228.7782135 297.96842957 C224.26737117 304.64047969 219.59758303 311.14298897 214.72523499 317.55485535 C210.64117418 322.94256823 206.72823687 328.43692232 202.84828186 333.9728241 C199.20274918 339.17091924 195.50502924 344.32833794 191.7782135 349.46842957 C187.57117275 355.2739584 183.40212305 361.10355557 179.2782135 366.96842957 C174.61684601 373.59765668 169.88876919 380.17571494 165.13368225 386.73796082 C161.47825763 391.78925165 157.86463389 396.86795308 154.2782135 401.96842957 C150.15430149 407.83330706 145.98502987 413.66273556 141.7782135 419.46842957 C137.00726631 426.05346027 132.28599865 432.67090775 127.61097717 439.3243866 C125.20724119 442.74380268 122.7913513 446.15273382 120.3407135 449.53874207 C119.6449823 450.50215515 119.6449823 450.50215515 118.93519592 451.48503113 C118.06356675 452.68983252 117.18890978 453.89245148 116.3106842 455.092453 C114.53103544 457.55549581 113.24686985 459.56246051 112.2782135 462.46842957 C73.0082135 462.46842957 33.7382135 462.46842957 -6.7217865 462.46842957 C-8.7017865 459.00342957 -8.7017865 459.00342957 -10.7217865 455.46842957 C-11.56662933 454.23917354 -12.43752232 453.02672106 -13.35069275 451.84733582 C-13.82345642 451.22947205 -14.29622009 450.61160828 -14.78330994 449.97502136 C-15.2786322 449.33347107 -15.77395447 448.69192078 -16.2842865 448.03092957 C-20.62594099 442.31577036 -24.87055388 436.54642213 -28.9717865 430.65592957 C-29.44946472 429.98054138 -29.92714294 429.3051532 -30.41929626 428.60929871 C-33.7217865 423.82285935 -33.7217865 423.82285935 -33.7217865 420.46842957 C-34.3817865 420.46842957 -35.0417865 420.46842957 -35.7217865 420.46842957 C-37.57721359 418.04564047 -39.31712881 415.61220137 -41.0342865 413.09342957 C-42.12053524 411.52633604 -43.20780907 409.95995266 -44.29600525 408.39421082 C-44.85980896 407.58032898 -45.42361267 406.76644714 -46.00450134 405.92790222 C-48.73879781 402.01187967 -51.54165374 398.14637167 -54.3467865 394.28092957 C-58.15546141 389.02205218 -61.95415884 383.75680037 -65.7217865 378.46842957 C-68.97864505 373.89802032 -72.25314728 369.34079946 -75.54136658 364.79289246 C-76.65410507 363.25368234 -77.76593447 361.71381456 -78.8768158 360.17326355 C-81.49448061 356.54349224 -84.12061988 352.92090181 -86.77256775 349.31608582 C-87.69316543 348.05438514 -88.61373971 346.79266738 -89.5342865 345.53092957 C-89.96096619 344.95794128 -90.38764587 344.384953 -90.82725525 343.79460144 C-93.7217865 339.80733608 -93.7217865 339.80733608 -93.7217865 336.46842957 C-94.62477478 336.08279846 -94.62477478 336.08279846 -95.54600525 335.68937683 C-97.9469082 334.34210174 -98.96026137 333.16928488 -100.5342865 330.93327332 C-101.30192322 329.8562616 -101.30192322 329.8562616 -102.08506775 328.75749207 C-102.89524353 327.59346863 -102.89524353 327.59346863 -103.7217865 326.40592957 C-104.29284119 325.6002655 -104.86389587 324.79460144 -105.45225525 323.96452332 C-107.21689016 321.47144088 -108.969969 318.97052945 -110.7217865 316.46842957 C-111.7418753 315.02128987 -112.76267277 313.57464938 -113.7842865 312.12858582 C-115.2578824 310.04237414 -116.73075085 307.95568616 -118.20030212 305.86662292 C-121.8341516 300.70458019 -125.51769603 295.58025038 -129.2217865 290.46842957 C-133.93004181 283.97081356 -138.58113842 277.43619264 -143.19566345 270.87174988 C-146.34305817 266.40167225 -149.52451975 261.95808804 -152.73301697 257.53166199 C-154.37554698 255.26498971 -156.01204217 252.99406538 -157.64756775 250.72233582 C-159.60380483 248.00612174 -161.58064712 245.30741145 -163.57725525 242.62077332 C-164.41761739 241.46620253 -165.25749487 240.31127877 -166.0967865 239.15592957 C-166.82639587 238.16979675 -167.55600525 237.18366394 -168.307724 236.16764832 C-169.7217865 233.46842957 -169.7217865 233.46842957 -169.776474 231.09342957 C-168.22783567 227.23904083 -165.92212051 224.11656537 -163.4717865 220.78092957 C-162.66922424 219.66705872 -162.66922424 219.66705872 -161.85044861 218.53068542 C-160.71801788 216.96102021 -159.58177946 215.39409592 -158.44200134 213.82975769 C-156.78376942 211.55351314 -155.13574051 209.27028896 -153.49131775 206.98405457 C-149.69787653 201.71361846 -145.88691961 196.45592777 -142.07627869 191.19792175 C-135.74504965 182.45909523 -129.45343636 173.69618308 -123.24546814 164.86930847 C-119.03149347 158.88617128 -114.75903492 152.94657981 -110.45860291 147.02531433 C-107.86899263 143.45704946 -105.29951741 139.87867478 -102.7842865 136.25749207 C-102.32876404 135.60546814 -101.87324158 134.95344421 -101.40391541 134.28166199 C-100.55601608 133.06492487 -99.7141527 131.84395057 -98.87950134 130.61808777 C-96.05608628 126.57986283 -96.05608628 126.57986283 -92.7217865 125.46842957 C-92.3908197 125.96020691 -92.05985291 126.45198425 -91.71885681 126.95866394 C-79.28024269 145.41125883 -79.28024269 145.41125883 -65.63194275 162.97624207 C-63.7854557 165.38536014 -62.35248797 167.8732555 -60.88291931 170.52262878 C-58.5752663 174.38974284 -55.79633088 177.93226894 -53.0967865 181.53092957 C-51.85297704 183.21168248 -50.60949016 184.89267415 -49.36631775 186.57389832 C-47.11121929 189.61172881 -44.83779326 192.63400312 -42.54600525 195.64421082 C-41.62507074 196.87701369 -40.704474 198.110069 -39.7842865 199.34342957 C-39.35357849 199.89522888 -38.92287048 200.4470282 -38.47911072 201.01554871 C-36.69275713 203.43408343 -35.6603608 204.83318549 -35.9561615 207.89225769 C-36.75582504 210.58296231 -37.73011765 212.30821106 -39.37413025 214.56999207 C-39.90329041 215.30733582 -40.43245056 216.04467957 -40.97764587 216.80436707 C-41.53258728 217.55975769 -42.08752869 218.31514832 -42.6592865 219.09342957 C-43.75183127 220.60638046 -44.84428294 222.11939859 -45.93663025 223.63249207 C-46.42252625 224.29716492 -46.90842224 224.96183777 -47.40904236 225.64665222 C-49.94459102 228.69721162 -49.94459102 228.69721162 -50.52183533 232.39860535 C-49.60366676 234.77401978 -48.43549697 236.53764629 -46.92100525 238.58561707 C-46.35575134 239.3577655 -45.79049744 240.12991394 -45.20811462 240.92546082 C-44.61450134 241.7233905 -44.02088806 242.52132019 -43.4092865 243.34342957 C-42.24554539 244.92343688 -41.082764 246.50415158 -39.92100525 248.08561707 C-39.36558044 248.84092712 -38.81015564 249.59623718 -38.23789978 250.37443542 C-36.32066939 253.02243623 -34.51489015 255.73517854 -32.7217865 258.46842957 C-31.31065904 260.53472335 -29.89378444 262.59710161 -28.4717865 264.65592957 C-28.08627625 265.21473816 -27.70076599 265.77354675 -27.30357361 266.34928894 C-24.08928012 270.98785262 -20.7500449 275.52592955 -17.35069275 280.03092957 C-15.73645959 282.44647271 -14.69199359 284.73819856 -13.7217865 287.46842957 C-13.0617865 287.46842957 -12.4017865 287.46842957 -11.7217865 287.46842957 C-10.03248456 289.72698626 -8.46079987 291.99212198 -6.9092865 294.34342957 C-5.91516536 295.82132088 -4.91899151 297.29783303 -3.92100525 298.77311707 C-3.13669128 299.93278992 -3.13669128 299.93278992 -2.33653259 301.1158905 C0.29665802 304.95221114 3.03770457 308.70840553 5.7782135 312.46842957 C10.10528292 318.42979584 14.39082571 324.41662275 18.5907135 330.46842957 C19.0650885 331.14518738 19.5394635 331.82194519 20.0282135 332.51921082 C23.2782135 337.23317478 23.2782135 337.23317478 23.2782135 339.46842957 C24.2682135 339.79842957 25.2582135 340.12842957 26.2782135 340.46842957 C27.51405334 341.8568573 27.51405334 341.8568573 28.739151 343.65202332 C29.43742004 344.66039246 29.43742004 344.66039246 30.14979553 345.68913269 C30.64592346 346.42067566 31.14205139 347.15221863 31.6532135 347.90592957 C32.72002455 349.44691572 33.78776667 350.98725763 34.8563385 352.52702332 C35.41256897 353.33252625 35.96879944 354.13802917 36.54188538 354.96794128 C39.45541081 359.16371287 42.42411867 363.31906583 45.4032135 367.46842957 C45.95928284 368.25145447 46.51535217 369.03447937 47.08827209 369.8412323 C47.86678528 370.92513245 47.86678528 370.92513245 48.661026 372.03092957 C49.11880432 372.67159363 49.57658264 373.31225769 50.04823303 373.97233582 C51.22616778 375.61194919 51.22616778 375.61194919 53.2782135 376.46842957 C54.35135803 374.9408905 54.35135803 374.9408905 55.44618225 373.38249207 C60.84427426 365.71074717 66.27380748 358.06432692 71.7782135 350.46842957 C75.98509051 344.6627766 80.15416631 338.83321226 84.2782135 332.96842957 C91.0703182 323.31319494 97.99641563 313.75637024 104.92372131 304.19792175 C111.25649614 295.45696161 117.55011694 286.69222723 123.75892639 277.86271667 C127.92409237 271.94811264 132.15678471 266.08407117 136.40296936 260.22746277 C140.76469903 254.20274568 145.06151191 248.13407432 149.32118225 242.03678894 C151.86238172 238.41309529 154.46537834 234.8901608 157.2782135 231.46842957 C155.09873562 226.90590319 152.26005489 222.87804353 149.4032135 218.71842957 C148.82313538 217.8715155 148.24305725 217.02460144 147.645401 216.15202332 C143.51209144 210.15872446 139.21370917 204.31841893 134.80018616 198.529953 C130.36344542 192.6733971 126.24665045 186.62124719 122.13368225 180.53483582 C118.64876019 175.40310095 115.03941268 170.40066174 111.2782135 165.46842957 C106.9216093 159.75541562 102.8009894 153.92106277 98.7782135 147.96842957 C94.26737117 141.29637944 89.59758303 134.79387016 84.72523499 128.38200378 C81.16516515 123.68554235 77.72453809 118.91826607 74.3407135 114.09342957 C69.99729391 107.90376862 65.62922948 101.73338186 61.2157135 95.59342957 C60.66729797 94.82595398 60.11888245 94.05847839 59.55384827 93.26774597 C59.03878723 92.55279968 58.5237262 91.83785339 57.99305725 91.10124207 C57.314245 90.15595642 57.314245 90.15595642 56.62171936 89.1915741 C55.28265579 87.47412713 53.85028962 85.97270648 52.2782135 84.46842957 C52.06036194 85.14260925 51.84251038 85.81678894 51.61805725 86.51139832 C49.86496339 90.38047135 47.43953967 93.44104145 44.8407135 96.78092957 C37.96299563 105.7723644 31.55669342 115.05070969 25.2782135 124.46842957 C22.09328956 123.10827267 20.45239456 121.75549116 18.4657135 118.93327332 C17.95395569 118.2152655 17.44219788 117.49725769 16.91493225 116.75749207 C16.37481506 115.98147644 15.83469788 115.20546082 15.2782135 114.40592957 C14.70715881 113.6002655 14.13610413 112.79460144 13.54774475 111.96452332 C11.78310984 109.47144088 10.030031 106.97052945 8.2782135 104.46842957 C7.2581247 103.02128987 6.23732723 101.57464938 5.2157135 100.12858582 C3.74157796 98.04150867 2.26807058 95.95401708 0.79750061 93.86442566 C-4.42112279 86.45365592 -9.73580684 79.11333768 -15.05430603 71.77409363 C-16.7697561 69.40210088 -18.47895998 67.02571583 -20.18663025 64.64811707 C-28.25474273 53.40873085 -28.25474273 53.40873085 -36.7217865 42.46842957 C-36.3917865 41.80842957 -36.0617865 41.14842957 -35.7217865 40.46842957 C-35.0617865 40.79842957 -34.4017865 41.12842957 -33.7217865 41.46842957 C-33.50264587 40.79296082 -33.28350525 40.11749207 -33.057724 39.42155457 C-31.31911813 35.57832054 -28.9251779 32.53712286 -26.3467865 29.21842957 C-21.27062293 22.58371969 -16.39640845 15.83582937 -11.64414978 8.96549988 C-11.17348083 8.28970886 -10.70281189 7.61391785 -10.21788025 6.91764832 C-9.60190979 6.02565735 -9.60190979 6.02565735 -8.97349548 5.11564636 C-6.19308225 1.45669413 -4.73312682 0.10097813 0 0 Z " fill="#426FAA" transform="translate(349.72178649902344,6.5315704345703125)"/>
<path d="M0 0 C1.27773206 -0.02564089 1.27773206 -0.02564089 2.58127689 -0.05179977 C3.56092915 -0.08042099 4.5405814 -0.10904221 5.54992008 -0.13853073 C6.62366886 -0.14928635 7.69741764 -0.16004196 8.80370426 -0.1711235 C9.93578815 -0.19740829 11.06787205 -0.22369308 12.23426151 -0.25077438 C15.99122488 -0.32978612 19.74754707 -0.37637956 23.50512028 -0.41624069 C24.78923361 -0.4325428 26.07334694 -0.44884491 27.3963728 -0.46564102 C33.49712489 -0.54052289 39.59755638 -0.59876135 45.69867367 -0.6320889 C52.71960548 -0.67108154 59.7354582 -0.77604278 66.7546019 -0.93809247 C72.85074065 -1.07394747 78.94477068 -1.12071983 85.04233837 -1.13690567 C87.6256892 -1.15633572 90.20898906 -1.20270348 92.79134274 -1.27705765 C112.46612977 -1.80813989 112.46612977 -1.80813989 118.06979084 2.1081543 C121.81852385 5.80987716 124.44631353 9.98402712 126.83365917 14.65407562 C128.14598515 17.1552806 129.77153575 19.36191109 131.47777653 21.60719681 C132.42819874 22.95699857 133.37627526 24.30845635 134.32152653 25.66188431 C135.04855778 26.69442337 135.04855778 26.69442337 135.79027653 27.74782181 C142.58256465 37.41944946 142.58256465 37.41944946 145.20433903 41.90016556 C147.50568956 45.65236752 150.1043942 49.16902175 152.69652653 52.72438431 C153.87105931 54.34283499 155.04553695 55.96132568 156.21996403 57.57985306 C156.81905582 58.40404739 157.41814762 59.22824173 158.03539371 60.07741165 C160.80531912 63.89154896 163.56322533 67.71433681 166.32152653 71.53688431 C169.58010825 76.05088165 172.84019328 80.56376118 176.10668278 85.07204056 C181.51945667 92.54739837 186.89502267 100.04461632 192.19652653 107.59938431 C195.63662192 112.49764973 199.13614537 117.30266071 202.86058903 121.99000931 C210.19316209 131.51359026 217.04245031 141.42610726 224.01659489 151.2141304 C227.38787828 155.94189453 230.79123702 160.64607856 234.19652653 165.34938431 C238.94691596 171.91315425 243.64103634 178.51378864 248.301507 185.14162064 C252.46640526 191.05566689 256.69929761 196.91879235 260.94408512 202.77565384 C265.32946707 208.83480532 269.65414661 214.93518761 273.9523859 221.05641556 C274.64944645 222.04834915 274.64944645 222.04834915 275.36058903 223.06032181 C275.99915836 223.98216263 275.99915836 223.98216263 276.65062809 224.9226265 C277.88413276 226.68458365 277.88413276 226.68458365 279.78246403 228.70094681 C280.82152653 230.53688431 280.82152653 230.53688431 280.37621403 232.77125931 C278.18633148 236.66682928 275.60627201 240.20053768 272.94652653 243.78688431 C271.76079608 245.40606511 270.57591922 247.02587131 269.39183903 248.64625931 C268.79274723 249.46416946 268.19365543 250.28207962 267.57640934 251.12477493 C264.9507819 254.73373419 262.38455053 258.3833305 259.82152653 262.03688431 C255.11197474 268.73527763 250.33835009 275.38497152 245.53637028 282.01735306 C241.87802647 287.07060494 238.24092261 292.13819712 234.6230402 297.22047806 C232.35421617 300.40364498 230.07062766 303.57528681 227.77074528 306.73610306 C219.91857287 317.53536027 212.30507734 328.47907265 204.82152653 339.53688431 C201.45935901 335.44690641 198.41356587 331.18594062 195.38402653 326.84938431 C190.97270404 320.56467577 186.5139234 314.31734644 182.00902653 308.09938431 C179.9457181 305.24580133 177.88355219 302.39139428 175.82152653 299.53688431 C175.40902653 298.96695755 174.99652653 298.39703079 174.57152653 297.80983353 C173.54571306 296.38909968 172.52698463 294.96325706 171.50902653 293.53688431 C170.71045231 292.42313431 170.71045231 292.42313431 169.89574528 291.28688431 C168.82152653 289.53688431 168.82152653 289.53688431 168.82152653 287.53688431 C168.16152653 287.53688431 167.50152653 287.53688431 166.82152653 287.53688431 C165.87520278 286.20502126 164.94332809 284.8615168 164.06762028 283.48219681 C162.66499962 281.29252569 161.18965434 279.16590891 159.69652653 277.03688431 C159.10484684 276.18997025 158.51316715 275.34305618 157.90355778 274.47047806 C156.33504425 272.26043367 154.74982147 270.06851271 153.14574528 267.88454056 C152.68893375 267.25805618 152.23212223 266.63157181 151.76146793 265.98610306 C150.85427577 264.74349742 149.94131435 263.50508012 149.02221012 262.27125931 C145.82152653 257.87295661 145.82152653 257.87295661 145.82152653 254.53688431 C146.96727848 252.62331009 146.96727848 252.62331009 148.55980778 250.48219681 C149.13279606 249.702314 149.70578434 248.92243118 150.2961359 248.11891556 C150.90263981 247.30809525 151.50914371 246.49727493 152.13402653 245.66188431 C157.27929753 238.80124559 157.27929753 238.80124559 161.82152653 231.53688431 C161.1176984 230.54172806 160.41387028 229.54657181 159.68871403 228.52125931 C158.69120668 227.10987978 157.69382144 225.69841395 156.69652653 224.28688431 C156.15955143 223.5269014 155.62257633 222.76691849 155.06932926 221.98390579 C151.57425108 217.03267073 148.09615935 212.06996095 144.62865543 207.09938431 C139.41177906 199.62375961 134.15852588 192.17734886 128.82152653 184.78688431 C128.30598209 184.07282425 127.79043766 183.35876419 127.25927067 182.62306595 C124.75340921 179.16461013 122.21739068 175.73476457 119.63402653 172.33375931 C117.49284162 169.49210599 115.63958699 166.59712745 113.82152653 163.53688431 C111.90708145 160.77586949 109.92607038 158.06396104 107.94652653 155.34938431 C106.78615295 153.75318811 105.62600365 152.15682884 104.46605778 150.56032181 C103.86873844 149.73886673 103.27141911 148.91741165 102.65599918 148.071064 C100.80793417 145.51810753 98.9747866 142.9550599 97.14574528 140.38844681 C96.55712711 139.56497757 95.96850895 138.74150833 95.36205387 137.89308548 C94.22512422 136.30173734 93.0912461 134.70820388 91.96068668 133.11232376 C91.44683414 132.39520218 90.93298161 131.6780806 90.40355778 130.93922806 C89.9521442 130.30492874 89.50073063 129.67062943 89.03563786 129.01710892 C87.87057078 127.39143056 87.87057078 127.39143056 85.82152653 126.53688431 C84.87535964 124.89220495 83.93369307 123.24473898 83.01732731 121.58327103 C80.86631982 117.90222881 78.28603717 114.52804254 75.75902653 111.09938431 C68.35182787 100.94252784 60.99927885 90.73287059 54.38402653 80.03688431 C51.06971701 74.7497715 47.34496587 69.8245882 43.57567692 64.85890579 C38.31701252 57.9164927 33.30948486 50.8087849 28.317132 43.67360306 C25.84649133 40.14388594 23.36642412 36.6208397 20.88402653 33.09938431 C20.39958073 32.41166946 19.91513493 31.72395462 19.41600895 31.01539993 C14.97177484 24.72055839 10.45806401 18.47654824 5.92138004 12.24806595 C5.3998737 11.52997757 4.87836735 10.81188919 4.34105778 10.07204056 C3.87804264 9.43661331 3.4150275 8.80118607 2.93798161 8.14650345 C1.82152653 6.53688431 1.82152653 6.53688431 0.82152653 4.53688431 C-2.53443176 5.13616257 -4.55648573 6.38310866 -7.17847347 8.53688431 C-3.63031159 0.89468949 -3.63031159 0.89468949 0 0 Z " fill="#51A739" transform="translate(169.17847347259521,6.463115692138672)"/>
<path d="M0 0 C10.58209364 13.07787044 20.24583901 26.85952819 29.8515625 40.66015625 C33.06204425 45.27028152 36.31993224 49.84321184 39.61108398 54.39599609 C40.74256188 55.96145884 41.87229208 57.52818631 43.00024414 59.09619141 C45.66245941 62.79279025 48.34291619 66.46935376 51.09765625 70.09765625 C51.56840576 70.72768555 52.03915527 71.35771484 52.52416992 72.00683594 C53.40143856 73.17948709 54.29036494 74.34353911 55.19262695 75.49707031 C58.06057081 79.36709557 58.06057081 79.36709557 57.76782227 82.42602539 C56.96604313 85.11383379 55.99047445 86.84142472 54.34765625 89.1015625 C53.81849609 89.83890625 53.28933594 90.57625 52.74414062 91.3359375 C52.18919922 92.09132813 51.63425781 92.84671875 51.0625 93.625 C49.96995522 95.13795089 48.87750356 96.65096903 47.78515625 98.1640625 C47.29926025 98.82873535 46.81336426 99.4934082 46.31274414 100.17822266 C43.77719548 103.22878205 43.77719548 103.22878205 43.19995117 106.93017578 C44.11811974 109.30559021 45.28628953 111.06921673 46.80078125 113.1171875 C47.36603516 113.88933594 47.93128906 114.66148437 48.51367188 115.45703125 C49.4040918 116.65392578 49.4040918 116.65392578 50.3125 117.875 C51.47624111 119.45500731 52.6390225 121.03572201 53.80078125 122.6171875 C54.35620605 123.37249756 54.91163086 124.12780762 55.48388672 124.90600586 C57.4011171 127.55400667 59.20689634 130.26674897 61 133 C62.41112746 135.06629378 63.82800206 137.12867204 65.25 139.1875 C65.63551025 139.74630859 66.02102051 140.30511719 66.41821289 140.88085938 C69.63250638 145.51942306 72.9717416 150.05749998 76.37109375 154.5625 C77.98532691 156.97804314 79.02979291 159.26976899 80 162 C80.66 162 81.32 162 82 162 C83.68930194 164.25855669 85.26098663 166.52369241 86.8125 168.875 C87.80662114 170.35289132 88.80279499 171.82940346 89.80078125 173.3046875 C90.32365723 174.07780273 90.8465332 174.85091797 91.38525391 175.64746094 C94.01844452 179.48378158 96.75949107 183.23997597 99.5 187 C103.82706942 192.96136627 108.11261221 198.94819318 112.3125 205 C112.786875 205.67675781 113.26125 206.35351562 113.75 207.05078125 C117 211.76474521 117 211.76474521 117 214 C117.99 214.33 118.98 214.66 120 215 C121.25170898 216.40429687 121.25170898 216.40429687 122.49609375 218.21875 C122.96660156 218.89566895 123.43710937 219.57258789 123.921875 220.27001953 C124.42203125 221.00591309 124.9221875 221.74180664 125.4375 222.5 C126.50877606 224.04971324 127.58040101 225.59918533 128.65234375 227.1484375 C129.2026123 227.94862305 129.75288086 228.74880859 130.31982422 229.57324219 C131.96615214 231.95111192 133.63561417 234.31045558 135.31640625 236.6640625 C135.85015869 237.41236328 136.38391113 238.16066406 136.93383789 238.93164062 C137.95089903 240.35600185 138.96952747 241.77924572 139.98999023 243.20117188 C142.15715027 246.25260494 144.21321066 249.28912017 146.03125 252.5625 C148.12663809 256.22111412 150.47002825 259.5125475 153 262.875 C157.03318325 268.30365648 160.9901425 273.77672238 164.875 279.3125 C169.0236977 285.21602747 173.20876206 291.09101434 177.4375 296.9375 C177.97238037 297.67709961 178.50726074 298.41669922 179.05834961 299.17871094 C181.86873678 303.06178747 184.68364371 306.94156403 187.5 310.8203125 C188.07564697 311.61445557 188.65129395 312.40859863 189.24438477 313.22680664 C190.33191511 314.72708102 191.42082815 316.22635463 192.51147461 317.72436523 C196.13956406 322.73146759 199.60315592 327.83344768 203 333 C204.65 332.34 206.3 331.68 208 331 C207.34 332.98 206.68 334.96 206 337 C166.73 337 127.46 337 87 337 C85.02 333.535 85.02 333.535 83 330 C82.15515717 328.77074398 81.28426418 327.55829149 80.37109375 326.37890625 C79.89833008 325.76104248 79.42556641 325.14317871 78.93847656 324.5065918 C78.4431543 323.8650415 77.94783203 323.22349121 77.4375 322.5625 C73.09584551 316.84734079 68.85123262 311.07799256 64.75 305.1875 C64.27232178 304.51211182 63.79464355 303.83672363 63.30249023 303.14086914 C60 298.35442978 60 298.35442978 60 295 C59.34 295 58.68 295 58 295 C56.1445729 292.5772109 54.40465769 290.14377181 52.6875 287.625 C51.60125126 286.05790647 50.51397743 284.49152309 49.42578125 282.92578125 C48.86197754 282.11189941 48.29817383 281.29801758 47.71728516 280.45947266 C44.98298868 276.5434501 42.18013275 272.67794211 39.375 268.8125 C35.56632509 263.55362261 31.76762766 258.2883708 28 253 C24.74314145 248.42959076 21.46863922 243.8723699 18.18041992 239.32446289 C17.06768142 237.78525277 15.95585203 236.245385 14.8449707 234.70483398 C12.22730589 231.07506267 9.60116662 227.45247225 6.94921875 223.84765625 C6.02862107 222.58595557 5.10804678 221.32423782 4.1875 220.0625 C3.76082031 219.48951172 3.33414063 218.91652344 2.89453125 218.32617188 C0 214.33890651 0 214.33890651 0 211 C-0.90298828 210.6143689 -0.90298828 210.6143689 -1.82421875 210.22094727 C-4.2251217 208.87367217 -5.23847487 207.70085531 -6.8125 205.46484375 C-7.32425781 204.74683594 -7.83601563 204.02882813 -8.36328125 203.2890625 C-8.90339844 202.51304687 -9.44351563 201.73703125 -10 200.9375 C-10.57105469 200.13183594 -11.14210938 199.32617188 -11.73046875 198.49609375 C-13.49510366 196.00301131 -15.2481825 193.50209988 -17 191 C-18.0200888 189.55286031 -19.04088627 188.10621981 -20.0625 186.66015625 C-21.5360959 184.57394458 -23.00896435 182.48725659 -24.47851562 180.39819336 C-28.1123651 175.23615063 -31.79590953 170.11182081 -35.5 165 C-40.20825531 158.502384 -44.85935192 151.96776307 -49.47387695 145.40332031 C-52.62127167 140.93324268 -55.80273325 136.48965847 -59.01123047 132.06323242 C-60.65376048 129.79656014 -62.29025567 127.52563581 -63.92578125 125.25390625 C-65.88201833 122.53769217 -67.85886062 119.83898189 -69.85546875 117.15234375 C-70.69583089 115.99777297 -71.53570837 114.8428492 -72.375 113.6875 C-73.46941406 112.20830078 -73.46941406 112.20830078 -74.5859375 110.69921875 C-76 108 -76 108 -76.0546875 105.625 C-74.50604917 101.77061126 -72.20033401 98.64813581 -69.75 95.3125 C-68.94743774 94.19862915 -68.94743774 94.19862915 -68.12866211 93.06225586 C-66.99623138 91.49259064 -65.85999296 89.92566635 -64.72021484 88.36132812 C-63.06198292 86.08508357 -61.41395401 83.80185939 -59.76953125 81.515625 C-55.97609003 76.24518889 -52.16513311 70.9874982 -48.35449219 65.72949219 C-42.02326315 56.99066566 -35.73164986 48.22775351 -29.52368164 39.40087891 C-25.30993879 33.41807086 -21.03541934 27.48055167 -16.73901367 21.55688477 C-14.14738368 17.98204654 -11.56856572 14.39995965 -9.02734375 10.7890625 C-8.56730957 10.13703857 -8.10727539 9.48501465 -7.63330078 8.81323242 C-6.77518661 7.59458341 -5.92049197 6.37351674 -5.06982422 5.1496582 C-2.22168377 1.11084189 -2.22168377 1.11084189 0 0 Z " fill="#3D5E9A" transform="translate(256,132)"/>
<path d="M0 0 C2.5467262 1.0955069 3.33284319 2.27149499 4.84204102 4.58447266 C5.35895508 5.36121338 5.87586914 6.1379541 6.40844727 6.93823242 C6.95243164 7.77797607 7.49641602 8.61771973 8.05688477 9.48291016 C9.22281416 11.2355706 10.39080907 12.98685862 11.56079102 14.73681641 C12.14103027 15.60838379 12.72126953 16.47995117 13.3190918 17.37792969 C15.62476265 20.7910752 18.03877794 24.11419202 20.49438477 27.42041016 C21.39157137 28.63261186 22.28870608 29.84485197 23.18579102 31.05712891 C23.86665771 31.97631104 23.86665771 31.97631104 24.5612793 32.9140625 C35.96145236 48.37712518 46.99695651 64.1072109 57.99438477 79.85791016 C57.63159424 80.33824707 57.26880371 80.81858398 56.89501953 81.31347656 C53.18162705 86.24520494 49.53769285 91.22214009 45.93188477 96.23291016 C44.78610531 97.82279274 43.6402704 99.41263535 42.49438477 101.00244141 C41.91430664 101.80762207 41.33422852 102.61280273 40.73657227 103.44238281 C39.05459632 105.77442738 37.36900428 108.10380355 35.68188477 110.43212891 C29.90614226 118.40613407 24.17721729 126.40952919 18.51367188 134.46362305 C14.34183403 140.38770124 10.101251 146.26031091 5.84985352 152.12744141 C2.1944284 157.17873291 -1.41915126 162.25746378 -5.00561523 167.35791016 C-9.7159861 174.05573654 -14.48878244 180.70598463 -19.29077148 187.33837891 C-22.94017795 192.37928568 -26.56823487 197.43461171 -30.17773438 202.50415039 C-32.5971443 205.89802434 -35.03228554 209.2800027 -37.47827148 212.65478516 C-38.07317383 213.47591797 -38.66807617 214.29705078 -39.28100586 215.14306641 C-40.45420455 216.76118307 -41.62864412 218.37840093 -42.80444336 219.99462891 C-43.33618164 220.72810547 -43.86791992 221.46158203 -44.41577148 222.21728516 C-44.89151611 222.87180664 -45.36726074 223.52632812 -45.85742188 224.20068359 C-47.06758469 225.863701 -47.06758469 225.863701 -48.00561523 227.85791016 C-86.94561523 227.85791016 -125.88561523 227.85791016 -166.00561523 227.85791016 C-164.54125279 224.19700404 -163.60788003 222.03436577 -161.38842773 219.02978516 C-160.87022461 218.32144531 -160.35202148 217.61310547 -159.81811523 216.88330078 C-158.98280273 215.75698242 -158.98280273 215.75698242 -158.13061523 214.60791016 C-156.94488478 212.98872935 -155.76000793 211.36892316 -154.57592773 209.74853516 C-153.97683594 208.930625 -153.37774414 208.11271484 -152.76049805 207.27001953 C-150.13487106 203.66106091 -147.56860888 200.01148463 -145.00561523 196.35791016 C-140.34505638 189.72812277 -135.61616188 183.15061229 -130.86108398 176.58837891 C-127.20565936 171.53708808 -123.59203562 166.45838664 -120.00561523 161.35791016 C-115.34424775 154.72868304 -110.61617093 148.15062478 -105.86108398 141.58837891 C-102.20565936 136.53708808 -98.59203562 131.45838664 -95.00561523 126.35791016 C-90.34424775 119.72868304 -85.61617093 113.15062478 -80.86108398 106.58837891 C-77.20565807 101.5370863 -73.59215369 96.45830491 -70.00561523 91.35791016 C-63.21351053 81.70267553 -56.2874131 72.14585083 -49.36010742 62.58740234 C-43.03257917 53.85368391 -36.74414675 45.09622513 -30.5402832 36.27416992 C-25.23871279 28.74622054 -19.84145634 21.28780162 -14.43164062 13.83740234 C-13.4872877 12.5265286 -12.55142047 11.20949635 -11.62451172 9.88623047 C-4.47450008 -0.31700049 -4.47450008 -0.31700049 0 0 Z " fill="#5FB235" transform="translate(169.005615234375,10.14208984375)"/>
<path d="M0 0 C1.64547318 0.00666183 1.64547318 0.00666183 3.32418823 0.01345825 C4.56532379 0.01360931 5.80645935 0.01376038 7.08520508 0.01391602 C8.4446529 0.02413003 9.8040991 0.03456204 11.1635437 0.04519653 C12.55073849 0.04892619 13.93793591 0.05177339 15.32513428 0.05377197 C18.97813171 0.0614122 22.63097037 0.08106388 26.28390503 0.10317993 C30.01068982 0.12363007 33.73750024 0.1327719 37.46432495 0.14285278 C44.77819945 0.16430953 52.09194309 0.19845001 59.4057312 0.24050903 C59.54108276 0.86957153 59.67643433 1.49863403 59.81588745 2.14675903 C60.5194917 4.64432112 61.55810914 5.46679185 63.4057312 7.24050903 C64.07239787 8.57384237 64.73906453 9.9071757 65.4057312 11.24050903 C65.9007312 11.73550903 66.3957312 12.23050903 66.9057312 12.74050903 C68.60012098 14.43489881 69.33969915 16.10844493 70.4057312 18.24050903 C70.9007312 18.73550903 71.3957312 19.23050903 71.9057312 19.74050903 C73.60012098 21.43489881 74.33969915 23.10844493 75.4057312 25.24050903 C75.8801062 25.71488403 76.3544812 26.18925903 76.8432312 26.67800903 C78.81204155 28.64681938 79.98294894 30.85023483 81.4057312 33.24050903 C82.0657312 34.06550903 82.7257312 34.89050903 83.4057312 35.74050903 C85.32736221 38.14254779 86.83669949 40.60168298 88.4057312 43.24050903 C89.0657312 43.90050903 89.7257312 44.56050903 90.4057312 45.24050903 C91.4057312 46.9071757 92.4057312 48.57384237 93.4057312 50.24050903 C94.0657312 50.90050903 94.7257312 51.56050903 95.4057312 52.24050903 C96.4057312 53.9071757 97.4057312 55.57384237 98.4057312 57.24050903 C99.0657312 57.90050903 99.7257312 58.56050903 100.4057312 59.24050903 C101.36434801 60.72710248 102.2975508 62.23012701 103.2182312 63.74050903 C108.02181027 71.36855282 113.36807018 78.59431462 118.67965698 85.87332153 C121.45246259 89.67602637 124.21143858 93.48868588 126.9682312 97.30300903 C127.50657593 98.04752319 128.04492065 98.79203735 128.59957886 99.55911255 C132.73772025 105.29186425 136.8195886 111.0627712 140.88644409 116.84622192 C144.52033806 122.00641098 148.20251194 127.12989052 151.9057312 132.24050903 C156.11259044 138.04617463 160.28168393 143.87572622 164.4057312 149.74050903 C170.66005997 158.63127475 177.0268865 167.43883905 183.4057312 176.24050903 C195.52460103 192.96239173 195.52460103 192.96239173 200.92379761 200.63674927 C201.905682 202.03063688 202.89099666 203.42211493 203.87985229 204.81106567 C206.56600651 208.58910576 209.18052567 212.39989028 211.72994995 216.27175903 C212.85090839 217.92810061 213.97199894 219.5843528 215.0932312 221.24050903 C215.84056519 222.41710083 215.84056519 222.41710083 216.60299683 223.61746216 C219.4232492 227.78162414 219.4232492 227.78162414 223.80270386 229.95535278 C226.03646655 230.2103904 228.16078262 230.32083144 230.4057312 230.24050903 C230.4057312 230.57050903 230.4057312 230.90050903 230.4057312 231.24050903 C228.96847249 231.40924381 227.53091283 231.57541641 226.0932312 231.74050903 C225.29272339 231.83332153 224.49221558 231.92613403 223.66744995 232.02175903 C221.4057312 232.24050903 221.4057312 232.24050903 218.4057312 232.24050903 C218.4057312 231.91050903 218.4057312 231.58050903 218.4057312 231.24050903 C217.72779007 231.2368634 217.04984894 231.23321777 216.35136414 231.22946167 C209.29451227 231.18764767 202.23831145 231.11830908 195.18185425 231.0329895 C192.54845695 231.00476584 189.91497471 230.98355833 187.28146362 230.96951294 C183.49562043 230.94810384 179.71079999 230.90146038 175.92526245 230.84988403 C174.74801102 230.8486554 173.57075958 230.84742676 172.35783386 230.84616089 C164.20217571 230.70006379 164.20217571 230.70006379 160.30514526 228.45144653 C158.56986231 226.43155933 156.95689372 224.48153582 155.49557495 222.25613403 C154.98703979 221.4942981 154.47850464 220.73246216 153.95455933 219.94754028 C153.42282104 219.13671997 152.89108276 218.32589966 152.3432312 217.49050903 C148.18635183 211.27647093 143.9485835 205.1785416 139.4057312 199.24050903 C134.45331067 192.74848013 129.83235931 186.07136251 125.26119995 179.30691528 C121.77627789 174.17518041 118.16693038 169.17274121 114.4057312 164.24050903 C110.049127 158.52749509 105.9285071 152.69314224 101.9057312 146.74050903 C97.39488887 140.06845891 92.72510073 133.56594963 87.85275269 127.15408325 C84.29268285 122.45762181 80.85205579 117.69034554 77.4682312 112.86550903 C73.12481161 106.67584809 68.75674718 100.50546132 64.3432312 94.36550903 C63.79481567 93.59803345 63.24640015 92.83055786 62.68136597 92.03982544 C62.16630493 91.32487915 61.6512439 90.60993286 61.12057495 89.87332153 C60.4417627 88.92803589 60.4417627 88.92803589 59.74923706 87.96365356 C58.41017349 86.24620659 56.97780732 84.74478595 55.4057312 83.24050903 C55.07895386 84.25177856 55.07895386 84.25177856 54.74557495 85.28347778 C52.99248109 89.15255081 50.56705737 92.21312092 47.9682312 95.55300903 C41.09051333 104.54444387 34.68421112 113.82278916 28.4057312 123.24050903 C25.22080726 121.88035214 23.57991226 120.52757063 21.5932312 117.70535278 C21.08147339 116.98734497 20.56971558 116.26933716 20.04244995 115.52957153 C19.50233276 114.75355591 18.96221558 113.97754028 18.4057312 113.17800903 C17.83467651 112.37234497 17.26362183 111.56668091 16.67526245 110.73660278 C14.91062754 108.24352035 13.1575487 105.74260892 11.4057312 103.24050903 C10.3856424 101.79336934 9.36484493 100.34672885 8.3432312 98.90066528 C6.86909566 96.81358813 5.39558828 94.72609655 3.92501831 92.63650513 C-1.29360509 85.22573539 -6.60828914 77.88541715 -11.92678833 70.5461731 C-13.6422384 68.17418035 -15.35144228 65.7977953 -17.05911255 63.42019653 C-25.12722503 52.18081032 -25.12722503 52.18081032 -33.5942688 41.24050903 C-33.2642688 40.58050903 -32.9342688 39.92050903 -32.5942688 39.24050903 C-31.9342688 39.57050903 -31.2742688 39.90050903 -30.5942688 40.24050903 C-30.37512817 39.56504028 -30.15598755 38.88957153 -29.9302063 38.19363403 C-28.1915921 34.35038159 -25.79761231 31.30925801 -23.2192688 27.99050903 C-18.11967735 21.32301619 -13.22029059 14.54162215 -8.42874146 7.64968872 C-7.95484985 6.97067505 -7.48095825 6.29166138 -6.9927063 5.59207153 C-6.57682251 4.99217407 -6.16093872 4.39227661 -5.73245239 3.77420044 C-3.14813426 0.2918567 -3.14813426 0.2918567 0 0 Z " fill="#4885BF" transform="translate(346.5942687988281,7.759490966796875)"/>
<path d="M0 0 C15.04654935 -0.37490695 30.09273536 -0.65645416 45.14297104 -0.82899475 C52.13255298 -0.91126738 59.11922253 -1.02326031 66.10693359 -1.20703125 C72.85695939 -1.38446558 79.60396646 -1.47666526 86.35617828 -1.51803589 C88.92570739 -1.54749593 91.4950796 -1.60503368 94.06331635 -1.69168091 C113.66051324 -2.32627258 113.66051324 -2.32627258 119.24478149 1.56370544 C122.996458 5.26195757 125.62998997 9.4373043 128.015481 14.10824776 C129.3229361 16.62052137 130.92773496 18.87070597 132.59375 21.15625 C133.56540586 22.60221823 134.53422201 24.05009927 135.5 25.5 C140.00637126 32.17494775 144.68080242 38.67478569 149.55297852 45.08642578 C153.63703933 50.47413866 157.54997663 55.96849275 161.42993164 61.50439453 C165.07546432 66.70248968 168.77318427 71.85990837 172.5 77 C177.21061167 83.50043428 181.86297821 90.03864183 186.48046875 96.60546875 C190.11454566 101.7656672 193.79671401 106.8892894 197.5 112 C201.70685924 117.8056656 205.87595272 123.63521719 210 129.5 C216.25432876 138.39076572 222.6211553 147.19833001 229 156 C235.88264459 165.49682413 242.7342194 175.0115651 249.48071289 184.60571289 C253.64529331 190.51948541 257.87801015 196.3822379 262.12255859 202.23876953 C266.50794054 208.29792101 270.83262008 214.3983033 275.13085938 220.51953125 C275.82791992 221.51146484 275.82791992 221.51146484 276.5390625 222.5234375 C276.96735352 223.13413086 277.39564453 223.74482422 277.83691406 224.37402344 C278.80297314 225.72455943 279.81409043 227.0427286 280.8359375 228.3515625 C282 230 282 230 282 232 C274.48008136 232.17138498 266.96199971 232.27113577 259.44018745 232.28240681 C255.94586241 232.28983116 252.45523241 232.3208187 248.96191406 232.40795898 C224.53307117 232.99030776 224.53307117 232.99030776 219.10986328 228.34448242 C216.36191157 225.21546202 214.72148243 221.77195331 213 218 C211.90055232 216.35609492 210.77074 214.73178398 209.6015625 213.13671875 C208.60637331 211.65565839 207.61418415 210.17257778 206.625 208.6875 C202.56487405 202.66946971 198.40338672 196.7716131 194 191 C189.59644256 185.22816313 185.43921384 179.3279172 181.375 173.3125 C177.72625885 167.91236309 174.02547395 162.62629126 170 157.5 C165.36142963 151.59295327 161.16062464 145.44046199 156.95703125 139.21875 C153.43847535 134.0356782 149.79943277 128.98023564 146 124 C141.04852202 117.50720909 136.42667215 110.83091864 131.85546875 104.06640625 C128.37054299 98.93466593 124.76112833 93.93229156 121 89 C115.96420594 82.39448844 111.24638146 75.60627283 106.58520508 68.73242188 C102.51052868 62.72620698 98.31671299 56.83538601 94 51 C80.58536585 32.75609756 80.58536585 32.75609756 79 28 C78.154375 27.154375 77.30875 26.30875 76.4375 25.4375 C75.633125 24.633125 74.82875 23.82875 74 23 C74 22.34 74 21.68 74 21 C73.175 20.175 72.35 19.35 71.5 18.5 C70.675 17.675 69.85 16.85 69 16 C69 15.34 69 14.68 69 14 C68.175 13.175 67.35 12.35 66.5 11.5 C65.675 10.675 64.85 9.85 64 9 C64 8.34 64 7.68 64 7 C62.68733482 5.64631404 61.35432675 4.31200404 60 3 C60 2.67 60 2.34 60 2 C30.3 1.505 30.3 1.505 0 1 C0 0.67 0 0.34 0 0 Z " fill="#3F64A0" transform="translate(345,7)"/>
<path d="M0 0 C20.13 0 40.26 0 61 0 C61.495 2.475 61.495 2.475 62 5 C62.66 5 63.32 5 64 5 C64 5.99 64 6.98 64 8 C64.99 8.33 65.98 8.66 67 9 C67 9.99 67 10.98 67 12 C67.99 12.33 68.98 12.66 70 13 C72 16 72 16 72 19 C73.485 19.495 73.485 19.495 75 20 C77 23 77 23 77 26 C77.66 26 78.32 26 79 26 C79.433125 26.928125 79.86625 27.85625 80.3125 28.8125 C81.76346511 31.55321188 82.83513759 32.92926204 85 35 C85.66666667 36.33333333 86.33333333 37.66666667 87 39 C87.495 39.495 87.99 39.99 88.5 40.5 C90.19438978 42.19438978 90.93396795 43.86793589 92 46 C92.474375 46.474375 92.94875 46.94875 93.4375 47.4375 C95.40631035 49.40631035 96.57721773 51.60972579 98 54 C98.66 54.825 99.32 55.65 100 56.5 C101.92163101 58.90203876 103.43096829 61.36117394 105 64 C105.66 64.66 106.32 65.32 107 66 C108 67.66666667 109 69.33333333 110 71 C110.66 71.66 111.32 72.32 112 73 C112.9586168 74.48659345 113.8918196 75.98961798 114.8125 77.5 C119.61607907 85.12804378 124.96233897 92.35380559 130.27392578 99.6328125 C133.04673139 103.43551734 135.80570737 107.24817685 138.5625 111.0625 C139.10084473 111.80701416 139.63918945 112.55152832 140.19384766 113.31860352 C144.33198905 119.05135522 148.4138574 124.82226217 152.48071289 130.60571289 C156.11460686 135.76590195 159.79678074 140.88938149 163.5 146 C167.7068583 151.8056643 171.87603835 157.6351578 176 163.5 C180.70978606 170.19699483 185.48272228 176.84587258 190.28295898 183.47827148 C195.21853068 190.29772831 200.12473345 197.13730594 205 204 C205.49419434 204.69544922 205.98838867 205.39089844 206.49755859 206.10742188 C208.08349265 208.34118716 209.66712341 210.57656731 211.25 212.8125 C211.733479 213.4938501 212.21695801 214.1752002 212.71508789 214.87719727 C215.25444673 218.47074447 217.74241235 222.09223512 220.17871094 225.7565918 C220.70978455 226.55485886 221.24085815 227.35312592 221.7880249 228.17558289 C222.18797668 228.77764053 222.58792847 229.37969818 223 230 C215.52420441 230.09280363 208.04853363 230.16381701 200.57227802 230.20724869 C197.10046816 230.22809712 193.62905327 230.25636295 190.1574707 230.30175781 C186.16353631 230.35365439 182.17001485 230.37296773 178.17578125 230.390625 C176.31147209 230.42159271 176.31147209 230.42159271 174.40950012 230.45318604 C173.24867416 230.45348816 172.08784821 230.45379028 170.8918457 230.45410156 C169.87258499 230.46298401 168.85332428 230.47186646 167.80317688 230.48101807 C163.54301175 229.7499845 161.11507058 227.37177496 158.4453125 224.08740234 C158.00960937 223.42691895 157.57390625 222.76643555 157.125 222.0859375 C156.62137939 221.33401123 156.11775879 220.58208496 155.59887695 219.80737305 C155.07124756 219.00468994 154.54361816 218.20200684 154 217.375 C152.84966029 215.65881127 151.69726204 213.94400084 150.54296875 212.23046875 C149.95692871 211.3595459 149.37088867 210.48862305 148.76708984 209.59130859 C146.02392892 205.56866283 143.17637156 201.6247375 140.3125 197.6875 C139.50510376 196.57665039 139.50510376 196.57665039 138.68139648 195.44335938 C137.6257715 193.99149325 136.56987044 192.53982781 135.51367188 191.08837891 C133.17700326 187.86452999 130.86973977 184.61994149 128.5625 181.375 C125.52954315 177.1105809 122.4563728 172.88540126 119.25390625 168.74609375 C118 167 118 167 116.70703125 164.796875 C114.38056762 160.98509478 111.75507556 157.41916015 109.125 153.8125 C107.96462642 152.2163038 106.80447713 150.61994453 105.64453125 149.0234375 C105.04721191 148.20198242 104.44989258 147.38052734 103.83447266 146.53417969 C101.98640764 143.98122323 100.15326007 141.4181756 98.32421875 138.8515625 C97.73560059 138.02809326 97.14698242 137.20462402 96.54052734 136.35620117 C95.40359769 134.76485304 94.26971957 133.17131957 93.13916016 131.57543945 C92.62530762 130.85831787 92.11145508 130.14119629 91.58203125 129.40234375 C91.13061768 128.76804443 90.6792041 128.13374512 90.21411133 127.48022461 C89.04904425 125.85454626 89.04904425 125.85454626 87 125 C86.05383311 123.35532064 85.11216654 121.70785468 84.19580078 120.04638672 C82.04479329 116.3653445 79.46451064 112.99115823 76.9375 109.5625 C69.53030134 99.40564353 62.17775232 89.19598628 55.5625 78.5 C52.24819048 73.2128872 48.52343934 68.28770389 44.75415039 63.32202148 C39.495486 56.3796084 34.48795833 49.27190059 29.49560547 42.13671875 C27.02496472 38.60700151 24.54486637 35.08397751 22.0625 31.5625 C21.33365601 30.52766479 21.33365601 30.52766479 20.59008789 29.47192383 C16.20863563 23.26516589 11.75692034 17.10987632 7.27563477 10.97485352 C6.76057373 10.26643311 6.2455127 9.5580127 5.71484375 8.828125 C5.26230225 8.2084082 4.80976074 7.58869141 4.34350586 6.95019531 C2.79363467 4.7004459 1.40556936 2.34261561 0 0 Z " fill="#79C32F" transform="translate(168,8)"/>
<path d="M0 0 C3.40408642 -0.08227801 6.79922227 -0.19801346 10.19858932 -0.39809132 C32.01544813 -1.64987107 32.01544813 -1.64987107 38.35969162 2.69678783 C42.48711231 6.8573683 45.24957249 11.64873425 47.82560349 16.87732983 C49.15508486 19.51083698 50.7903126 21.78495995 52.59605026 24.11240673 C58.2441179 31.90960558 63.84226468 39.73860735 69.38096237 47.61387157 C73.60325163 53.60881409 77.88965716 59.55596276 82.18980026 65.49521923 C85.84719837 70.54716482 89.48212136 75.6143197 93.10093307 80.6939497 C96.47208704 85.42086445 99.8748035 90.12456488 103.27964401 94.82725048 C108.02479106 101.38377685 112.71376843 107.97710094 117.36924362 114.59751415 C122.18641073 121.43742956 127.08613639 128.21666832 131.99448776 134.99131298 C132.48296188 135.66702343 132.971436 136.34273388 133.47471237 137.0389204 C134.42056091 138.3458612 135.36925043 139.6507511 136.32090378 140.95347118 C138.43527911 143.86823608 140.38674991 146.71620541 141.96714401 149.95225048 C144.8184601 155.21827488 148.42964733 159.8413612 152.04966354 164.5911665 C155.75164307 169.45484804 159.33622955 174.38304433 162.84214401 179.38975048 C168.55907209 187.54436771 174.37626037 195.62273338 180.21958542 203.68711376 C181.98558978 206.12656401 183.74829065 208.56837198 185.51011276 211.01084423 C186.09929489 211.82754589 186.68847702 212.64424755 187.29551315 213.48569775 C188.42379452 215.04985185 189.55189653 216.61413536 190.6797905 218.17856884 C191.18969528 218.88505566 191.69960007 219.59154247 192.22495651 220.31943798 C192.67113327 220.93802685 193.11731003 221.55661572 193.57700729 222.1939497 C194.54689558 223.52411278 195.55021561 224.83008 196.57212448 226.12070751 C197.90464401 228.01475048 197.90464401 228.01475048 197.90464401 230.01475048 C178.10464401 230.01475048 158.30464401 230.01475048 137.90464401 230.01475048 C136.91464401 227.53975048 136.91464401 227.53975048 135.90464401 225.01475048 C134.25769916 223.32859266 132.5933828 221.65904877 130.90464401 220.01475048 C130.90464401 219.35475048 130.90464401 218.69475048 130.90464401 218.01475048 C130.24464401 217.68475048 129.58464401 217.35475048 128.90464401 217.01475048 C128.90464401 216.02475048 128.90464401 215.03475048 128.90464401 214.01475048 C127.91464401 213.68475048 126.92464401 213.35475048 125.90464401 213.01475048 C125.90464401 212.35475048 125.90464401 211.69475048 125.90464401 211.01475048 C125.07964401 210.18975048 124.25464401 209.36475048 123.40464401 208.51475048 C122.57964401 207.68975048 121.75464401 206.86475048 120.90464401 206.01475048 C120.90464401 205.35475048 120.90464401 204.69475048 120.90464401 204.01475048 C120.07964401 203.18975048 119.25464401 202.36475048 118.40464401 201.51475048 C117.57964401 200.68975048 116.75464401 199.86475048 115.90464401 199.01475048 C115.90464401 198.35475048 115.90464401 197.69475048 115.90464401 197.01475048 C115.07964401 196.18975048 114.25464401 195.36475048 113.40464401 194.51475048 C112.57964401 193.68975048 111.75464401 192.86475048 110.90464401 192.01475048 C110.90464401 191.35475048 110.90464401 190.69475048 110.90464401 190.01475048 C110.47151901 189.58162548 110.03839401 189.14850048 109.59214401 188.70225048 C107.90464401 187.01475048 107.90464401 187.01475048 106.63511276 184.88975048 C104.43821339 181.23982286 101.99632741 177.79852348 99.52964401 174.32725048 C99.00435104 173.58539501 98.47905807 172.84353954 97.93784714 172.07920361 C93.58345815 165.94183404 89.17774659 159.84209381 84.76255417 153.74839306 C80.6030551 148.00104828 76.50488762 142.21272227 72.42417526 136.40928173 C68.79009835 131.24908328 65.10793001 126.12546108 61.40464401 121.01475048 C56.69423745 114.51416565 52.04166793 107.97611168 47.42417526 101.40928173 C43.79009835 96.24908328 40.10793001 91.12546108 36.40464401 86.01475048 C31.69423745 79.51416565 27.04166793 72.97611168 22.42417526 66.40928173 C18.79009835 61.24908328 15.10793001 56.12546108 11.40464401 51.01475048 C6.70069182 44.52307299 2.05251971 37.99533036 -2.55604935 31.43564892 C-6.91530933 25.24178574 -11.35232582 19.10545865 -15.81996536 12.98935986 C-18.4183225 9.41539928 -20.90692569 5.86154146 -23.09535599 2.01475048 C-19.26237843 -1.81822708 -5.23313666 0.12392216 0 0 Z " fill="#6ABB32" transform="translate(85.09535598754883,237.98524951934814)"/>
<path d="M0 0 C7.42338827 -0.23254775 14.84598184 -0.40979601 22.27228546 -0.51812172 C25.72157651 -0.570139 29.16836219 -0.64056692 32.61621094 -0.75439453 C36.58757621 -0.88467244 40.55795719 -0.93250469 44.53125 -0.9765625 C45.75863892 -1.02817535 46.98602783 -1.07978821 48.25061035 -1.13296509 C56.67151892 -1.13844536 56.67151892 -1.13844536 60.52102661 2.16040039 C62.56668465 4.6878749 64.31267557 7.22364331 66 10 C66.86728876 11.25874249 67.73842929 12.51486265 68.6171875 13.765625 C69.37393664 14.92438694 70.12653703 16.08586871 70.875 17.25 C74.19744966 22.32103925 77.59113269 27.32369364 81.125 32.25 C81.53669434 32.82451904 81.94838867 33.39903809 82.37255859 33.9909668 C84.33959558 36.72504662 86.32734006 39.44065008 88.3359375 42.14453125 C89.40714844 43.58892578 89.40714844 43.58892578 90.5 45.0625 C91.1290625 45.89910156 91.758125 46.73570312 92.40625 47.59765625 C93.99922814 49.99883653 95.03478607 52.29257491 96 55 C96.66 55 97.32 55 98 55 C99.68930194 57.25855669 101.26098663 59.52369241 102.8125 61.875 C103.80662114 63.35289132 104.80279499 64.82940346 105.80078125 66.3046875 C106.32365723 67.07780273 106.8465332 67.85091797 107.38525391 68.64746094 C110.01844452 72.48378158 112.75949107 76.23997597 115.5 80 C119.82706942 85.96136627 124.11261221 91.94819318 128.3125 98 C128.786875 98.67675781 129.26125 99.35351562 129.75 100.05078125 C133 104.76474521 133 104.76474521 133 107 C133.99 107.33 134.98 107.66 136 108 C137.25170898 109.40429688 137.25170898 109.40429688 138.49609375 111.21875 C138.96660156 111.89566895 139.43710937 112.57258789 139.921875 113.27001953 C140.42203125 114.00591309 140.9221875 114.74180664 141.4375 115.5 C142.50877606 117.04971324 143.58040101 118.59918533 144.65234375 120.1484375 C145.2026123 120.94862305 145.75288086 121.74880859 146.31982422 122.57324219 C147.96615214 124.95111192 149.63561417 127.31045558 151.31640625 129.6640625 C151.85015869 130.41236328 152.38391113 131.16066406 152.93383789 131.93164062 C153.95089903 133.35600185 154.96952747 134.77924572 155.98999023 136.20117188 C158.15715027 139.25260494 160.21321066 142.28912017 162.03125 145.5625 C164.12663809 149.22111412 166.47002825 152.5125475 169 155.875 C173.03318325 161.30365648 176.9901425 166.77672238 180.875 172.3125 C186.62486611 180.49446335 192.4694356 188.60523682 198.33691406 196.703125 C200.03661382 199.05056707 201.73360267 201.39994492 203.4296875 203.75 C203.99220215 204.52939941 204.5547168 205.30879883 205.13427734 206.11181641 C206.23892018 207.64263219 207.3434163 209.17355386 208.44775391 210.70458984 C210.81943357 213.99042293 213.19513546 217.27282411 215.59375 220.5390625 C216.3259375 221.53679687 217.058125 222.53453125 217.8125 223.5625 C218.43769531 224.40941406 219.06289063 225.25632812 219.70703125 226.12890625 C221 228 221 228 221 229 C213.34192785 229.04629168 205.68387016 229.08185303 198.02569008 229.10362434 C194.46987601 229.11407224 190.9141575 229.12824959 187.35839844 229.15087891 C183.272777 229.17671832 179.18725631 229.18646444 175.1015625 229.1953125 C173.82133209 229.20563507 172.54110168 229.21595764 171.22207642 229.22659302 C169.45046646 229.22681961 169.45046646 229.22681961 167.64306641 229.22705078 C166.07753525 229.23371262 166.07753525 229.23371262 164.4803772 229.24050903 C162 229 162 229 160 227 C158.98594743 225.67732273 157.98731742 224.34275169 157 223 C156.484375 222.34 155.96875 221.68 155.4375 221 C154 219 154 219 153 216.9375 C152.10155786 214.95587195 152.10155786 214.95587195 150.5625 213.5625 C148.59368965 211.59368965 147.42278227 209.39027421 146 207 C144.68678142 205.3174387 143.35386936 203.65002828 142 202 C140.43108334 200.0086827 139.10628113 198.21920484 138 195.9375 C137.10155786 193.95587195 137.10155786 193.95587195 135.5625 192.5625 C133.59890226 190.59890226 132.406481 188.38490256 131 186 C130.34 185.34 129.68 184.68 129 184 C128 182.33333333 127 180.66666667 126 179 C125.34 178.34 124.68 177.68 124 177 C123.319375 175.8553125 123.319375 175.8553125 122.625 174.6875 C121.06658781 171.97285046 121.06658781 171.97285046 119.0859375 169.6328125 C117.17541604 167.22140527 115.58968516 164.81627624 114 162.1875 C111.01518914 157.4308546 107.77629015 152.96006822 104.375 148.5 C99.89371305 142.61937045 95.63729872 136.62731339 91.5 130.5 C87.47761876 124.54711484 83.35658763 118.71299222 79 113 C74.64339656 107.28698704 70.52276395 101.45263973 66.5 95.5 C62.49308373 89.57309064 58.39540858 83.75569848 54.0625 78.0625 C48.95781241 71.35483404 44.1016359 64.49634838 39.2902832 57.57592773 C34.28394879 50.38152217 29.16921238 43.27082072 24.0234375 36.17578125 C20.88560605 31.84913732 17.78048865 27.49971753 14.68896484 23.13989258 C12.47746144 20.03152691 10.22826002 16.95678828 7.9375 13.90625 C7.17203857 12.88180786 7.17203857 12.88180786 6.39111328 11.83666992 C5.40081473 10.51451771 4.40463055 9.19674788 3.40185547 7.8840332 C0 3.33363538 0 3.33363538 0 0 Z " fill="#4885BF" transform="translate(240,239)"/>
<path d="M0 0 C10.58209364 13.07787044 20.24583901 26.85952819 29.8515625 40.66015625 C33.06204425 45.27028152 36.31993224 49.84321184 39.61108398 54.39599609 C40.74256188 55.96145884 41.87229208 57.52818631 43.00024414 59.09619141 C45.66245941 62.79279025 48.34291619 66.46935376 51.09765625 70.09765625 C51.56840576 70.72768555 52.03915527 71.35771484 52.52416992 72.00683594 C53.40143856 73.17948709 54.29036494 74.34353911 55.19262695 75.49707031 C58.06153469 79.36839624 58.06153469 79.36839624 57.76342773 82.42822266 C56.97441544 85.08618733 56.02360369 86.81950389 54.41796875 89.06640625 C53.89783203 89.79923828 53.37769531 90.53207031 52.84179688 91.28710938 C52.29587891 92.03798828 51.74996094 92.78886719 51.1875 93.5625 C50.65318359 94.31724609 50.11886719 95.07199219 49.56835938 95.84960938 C48.07666834 97.93210547 46.59498127 99.99533589 45 102 C44.3058474 103.03582466 44.3058474 103.03582466 43.59767151 104.09257507 C39.38857613 107.18324047 34.98169697 106.52241569 29.89746094 106.45410156 C28.76546265 106.45468567 27.63346436 106.45526978 26.46716309 106.45587158 C22.72258932 106.45308313 18.97880985 106.42195352 15.234375 106.390625 C12.63934769 106.38316536 10.04431474 106.37747112 7.44927979 106.37347412 C1.31521684 106.359758 -4.81851792 106.3282275 -10.95245719 106.28807616 C-17.93665722 106.2433525 -24.92087095 106.22136998 -31.90517855 106.20129442 C-46.27027228 106.15949435 -60.635126 106.08914607 -75 106 C-73.80928179 102.29944057 -72.74092775 99.23871544 -70.41796875 96.109375 C-69.64827759 95.05931274 -69.64827759 95.05931274 -68.86303711 93.98803711 C-68.03364624 92.88020874 -68.03364624 92.88020874 -67.1875 91.75 C-66.00503601 90.14205379 -64.82274929 88.53397721 -63.640625 86.92578125 C-63.03541016 86.10803223 -62.43019531 85.2902832 -61.80664062 84.44775391 C-58.98943925 80.63082675 -56.21292486 76.78485654 -53.4375 72.9375 C-52.89955811 72.19338867 -52.36161621 71.44927734 -51.80737305 70.68261719 C-47.66832939 64.94981458 -43.58646835 59.17820107 -39.51928711 53.39428711 C-35.35107795 47.47536172 -31.11442645 41.60768187 -26.86645508 35.74584961 C-23.10212494 30.54442477 -19.38256406 25.3133187 -15.6875 20.0625 C-8.5057646 9.87178841 -8.5057646 9.87178841 -5.375 5.5 C-4.76398438 4.6440625 -4.15296875 3.788125 -3.5234375 2.90625 C-2 1 -2 1 0 0 Z " fill="#51B4E3" transform="translate(256,132)"/>
<path d="M0 0 C1.12239075 -0.00058411 2.24478149 -0.00116821 3.40118408 -0.00177002 C7.10785947 0.00101475 10.8137289 0.03212706 14.52026367 0.06347656 C17.09144145 0.07093751 19.66262492 0.07663113 22.23381042 0.08062744 C28.30763472 0.09433496 34.38112684 0.12585407 40.45482606 0.1660254 C47.37133543 0.21077549 54.28785879 0.23273822 61.20447695 0.25280714 C75.42838374 0.294588 89.65204781 0.36491975 103.87573242 0.45410156 C103.15131167 3.61714431 102.20273205 5.75366501 100.35620117 8.43847656 C99.5740625 9.58123047 99.5740625 9.58123047 98.77612305 10.74707031 C98.21086914 11.55789062 97.64561523 12.36871094 97.06323242 13.20410156 C96.47864258 14.05101562 95.89405273 14.89792969 95.29174805 15.77050781 C91.13344405 21.7545181 86.81513634 27.59834952 82.39794922 33.39257812 C78.55219329 38.46819508 74.94096153 43.67851533 71.37573242 48.95410156 C66.8660143 55.62448885 62.19605122 62.12425098 57.32714844 68.53613281 C47.74010554 81.19046113 38.83419913 94.35146226 29.87573242 107.45410156 C26.51356491 103.36412367 23.46777176 99.10315787 20.43823242 94.76660156 C16.02690994 88.48189302 11.5681293 82.2345637 7.06323242 76.01660156 C4.999924 73.16301858 2.93775809 70.30861154 0.87573242 67.45410156 C0.46323242 66.8841748 0.05073242 66.31424805 -0.37426758 65.72705078 C-1.40008104 64.30631694 -2.41880947 62.88047431 -3.43676758 61.45410156 C-3.96915039 60.71160156 -4.5015332 59.96910156 -5.05004883 59.20410156 C-6.12426758 57.45410156 -6.12426758 57.45410156 -6.12426758 55.45410156 C-6.78426758 55.45410156 -7.44426758 55.45410156 -8.12426758 55.45410156 C-9.07059132 54.12223851 -10.00246602 52.77873406 -10.87817383 51.39941406 C-12.28079449 49.20974294 -13.75613976 47.08312617 -15.24926758 44.95410156 C-15.84094727 44.1071875 -16.43262695 43.26027344 -17.04223633 42.38769531 C-18.61074985 40.17765093 -20.19597264 37.98572996 -21.80004883 35.80175781 C-22.25686035 35.17527344 -22.71367187 34.54878906 -23.18432617 33.90332031 C-24.09151833 32.66071468 -25.00447975 31.42229737 -25.92358398 30.18847656 C-29.12426758 25.79017387 -29.12426758 25.79017387 -29.12426758 22.45410156 C-28.01025391 20.5246582 -28.01025391 20.5246582 -26.45629883 18.36425781 C-25.89233398 17.57986328 -25.32836914 16.79546875 -24.74731445 15.98730469 C-24.14983398 15.17197266 -23.55235352 14.35664063 -22.93676758 13.51660156 C-22.35862305 12.70513672 -21.78047852 11.89367187 -21.18481445 11.05761719 C-14.77510995 2.22888296 -10.94984078 -0.14892847 0 0 Z " fill="#8DC82A" transform="translate(344.124267578125,238.5458984375)"/>
<path d="M0 0 C4.30745561 4.02981114 7.65934505 8.4443327 11.0625 13.25 C11.62904297 14.04212891 12.19558594 14.83425781 12.77929688 15.65039062 C17.0394449 21.61649337 21.2623302 27.60922332 25.48095703 33.60473633 C29.09850712 38.74094698 32.7564462 43.84663401 36.4375 48.9375 C36.97109131 49.67589111 37.50468262 50.41428223 38.05444336 51.17504883 C40.88406096 55.08686658 43.7228319 58.99179077 46.5703125 62.890625 C47.15498291 63.6937915 47.73965332 64.49695801 48.34204102 65.32446289 C49.45411017 66.85188128 50.56899197 68.37725758 51.68725586 69.90014648 C54.76581659 74.13396296 57.48898478 78.40550453 60 83 C59.34 83 58.68 83 58 83 C57.67322266 84.01126953 57.67322266 84.01126953 57.33984375 85.04296875 C55.58674989 88.91204178 53.16132617 91.97261189 50.5625 95.3125 C43.68478212 104.30393483 37.27847991 113.58228013 31 123 C27.81507606 121.63984311 26.17418105 120.2870616 24.1875 117.46484375 C23.67574219 116.74683594 23.16398437 116.02882813 22.63671875 115.2890625 C22.09660156 114.51304688 21.55648437 113.73703125 21 112.9375 C20.42894531 112.13183594 19.85789062 111.32617188 19.26953125 110.49609375 C17.50489634 108.00301131 15.7518175 105.50209988 14 103 C12.9799112 101.55286031 11.95911373 100.10621981 10.9375 98.66015625 C9.46336446 96.5730791 7.98985707 94.48558751 6.51928711 92.39599609 C1.30066371 84.98522636 -4.01402034 77.64490811 -9.33251953 70.30566406 C-11.0479696 67.93367132 -12.75717348 65.55728627 -14.46484375 63.1796875 C-22.53295623 51.94030128 -22.53295623 51.94030128 -31 41 C-30.67 40.34 -30.34 39.68 -30 39 C-29.34 39.33 -28.68 39.66 -28 40 C-27.78085937 39.32453125 -27.56171875 38.6490625 -27.3359375 37.953125 C-25.5973233 34.10987256 -23.20334351 31.06874897 -20.625 27.75 C-15.52540855 21.08250716 -10.62602179 14.30111312 -5.83447266 7.40917969 C-5.36058105 6.73016602 -4.88668945 6.05115234 -4.3984375 5.3515625 C-3.98255371 4.75166504 -3.56666992 4.15176758 -3.13818359 3.53369141 C-2 2 -2 2 0 0 Z " fill="#3B518E" transform="translate(344,8)"/>
<path d="M0 0 C1.18084671 0.00030212 2.36169342 0.00060425 3.57832336 0.00091553 C4.84306992 0.02156067 6.10781647 0.04220581 7.41088867 0.06347656 C8.71338058 0.06913635 10.0158725 0.07479614 11.35783386 0.08062744 C14.80881843 0.09584867 18.25912204 0.1350984 21.70983887 0.17944336 C25.23574615 0.22047299 28.76176423 0.23865475 32.2878418 0.25878906 C39.19762549 0.30159741 46.1069587 0.36980505 53.01635742 0.45410156 C52.07989347 1.86679022 51.14234028 3.27875686 50.2043457 4.69042969 C49.68236603 5.4767981 49.16038635 6.2631665 48.62258911 7.07336426 C46.13259029 10.76401058 43.51502089 14.35787319 40.89135742 17.95410156 C36.55651171 23.92445672 32.25850507 29.91752547 28.01635742 35.95410156 C23.13627448 42.89644475 18.18680569 49.78641766 13.20385742 56.65527344 C12.6856543 57.37005859 12.16745117 58.08484375 11.63354492 58.82128906 C11.1757666 59.45147949 10.71798828 60.08166992 10.24633789 60.73095703 C9.13822935 62.28336474 8.07434888 63.86711438 7.01635742 65.45410156 C3.71349656 64.35314794 3.23124841 63.76449966 1.32885742 61.01660156 C0.89186523 60.39914062 0.45487305 59.78167969 0.00463867 59.14550781 C-0.98364258 57.45410156 -0.98364258 57.45410156 -0.98364258 55.45410156 C-1.64364258 55.45410156 -2.30364258 55.45410156 -2.98364258 55.45410156 C-3.92996632 54.12223851 -4.86184102 52.77873406 -5.73754883 51.39941406 C-7.14016949 49.20974294 -8.61551476 47.08312617 -10.10864258 44.95410156 C-10.70032227 44.1071875 -11.29200195 43.26027344 -11.90161133 42.38769531 C-13.47012485 40.17765093 -15.05534764 37.98572996 -16.65942383 35.80175781 C-17.11623535 35.17527344 -17.57304687 34.54878906 -18.04370117 33.90332031 C-18.95089333 32.66071468 -19.86385475 31.42229737 -20.78295898 30.18847656 C-23.98364258 25.79017387 -23.98364258 25.79017387 -23.98364258 22.45410156 C-22.86962891 20.5246582 -22.86962891 20.5246582 -21.31567383 18.36425781 C-20.75170898 17.57986328 -20.18774414 16.79546875 -19.60668945 15.98730469 C-19.00920898 15.17197266 -18.41172852 14.35664063 -17.79614258 13.51660156 C-17.21799805 12.70513672 -16.63985352 11.89367187 -16.04418945 11.05761719 C-7.96676396 -0.06823781 -7.96676396 -0.06823781 0 0 Z " fill="#7EC32D" transform="translate(338.983642578125,238.5458984375)"/>
<path d="M0 0 C0.66 0 1.32 0 2 0 C2.804375 1.47339844 2.804375 1.47339844 3.625 2.9765625 C6.11815891 7.33521664 9.02831256 11.33368276 12 15.375 C13.14878283 16.9580828 14.2972111 18.54142294 15.4453125 20.125 C17.21998592 22.56431944 18.99959412 24.99945056 20.79199219 27.42578125 C22.49709487 29.73451863 24.18687784 32.05383203 25.875 34.375 C26.40480469 35.08188965 26.93460937 35.7887793 27.48046875 36.51708984 C27.95871094 37.17918457 28.43695313 37.8412793 28.9296875 38.5234375 C29.35491699 39.10013184 29.78014648 39.67682617 30.21826172 40.27099609 C31 42 31 42 30.78686523 43.98413086 C29.9256229 46.1905466 28.89021962 47.82766077 27.48046875 49.73046875 C26.95831787 50.44307861 26.43616699 51.15568848 25.89819336 51.88989258 C25.33366455 52.64810303 24.76913574 53.40631348 24.1875 54.1875 C23.00429199 55.79880668 21.82202351 57.41080363 20.640625 59.0234375 C20.03669922 59.84553711 19.43277344 60.66763672 18.81054688 61.51464844 C15.46422394 66.10817156 12.21367992 70.76927327 8.9597168 75.4284668 C6.41717124 79.05289008 3.81371385 82.57719986 1 86 C0.28457031 84.98164063 -0.43085938 83.96328125 -1.16796875 82.9140625 C-2.17419736 81.48417665 -3.18073284 80.05450672 -4.1875 78.625 C-4.72125244 77.86711182 -5.25500488 77.10922363 -5.80493164 76.32836914 C-10.32619336 69.92341268 -14.91196801 63.56677472 -19.5456543 57.24267578 C-22.91249327 52.6169318 -26.0351324 47.89322341 -29 43 C-28.57332031 42.49855469 -28.14664063 41.99710937 -27.70703125 41.48046875 C-22.31122707 34.94987689 -17.54814044 28.07485691 -12.80908203 21.05932617 C-9.11436865 15.59529053 -5.30933607 10.26494928 -1.29296875 5.03125 C0.26849023 2.9795111 0.26849023 2.9795111 0 0 Z " fill="#4EAD38" transform="translate(254,343)"/>
<path d="M0 0 C2.4906305 1.02873216 3.30242868 2.07461395 4.83813477 4.27416992 C5.35077881 4.99652832 5.86342285 5.71888672 6.39160156 6.46313477 C6.93083252 7.24640137 7.47006348 8.02966797 8.02563477 8.83666992 C8.87025269 10.03670654 8.87025269 10.03670654 9.73193359 11.26098633 C10.9105484 12.93711432 12.08470682 14.61638382 13.25463867 16.29858398 C14.97824813 18.76875822 16.7221865 21.22298807 18.47485352 23.67260742 C19.55453855 25.1854442 20.63397568 26.69845793 21.71313477 28.21166992 C22.47013672 29.2712793 22.47013672 29.2712793 23.24243164 30.35229492 C23.71100586 31.01487305 24.17958008 31.67745117 24.66235352 32.36010742 C25.07187256 32.93680176 25.4813916 33.51349609 25.90332031 34.10766602 C27.10291095 35.95571929 28.07595438 37.85025739 29.02563477 39.83666992 C28.36563477 39.83666992 27.70563477 39.83666992 27.02563477 39.83666992 C26.69885742 40.84793945 26.69885742 40.84793945 26.36547852 41.87963867 C24.61238466 45.7487117 22.18696093 48.80928181 19.58813477 52.14916992 C12.71041689 61.14060476 6.30411468 70.41895005 0.02563477 79.83666992 C-3.15928917 78.47651303 -4.80018418 77.12373152 -6.78686523 74.30151367 C-7.29950928 73.5824585 -7.81215332 72.86340332 -8.34033203 72.12255859 C-8.87956299 71.34759033 -9.41879395 70.57262207 -9.97436523 69.77416992 C-10.53744385 68.97793213 -11.10052246 68.18169434 -11.68066406 67.36132812 C-12.85827161 65.69467926 -14.03245196 64.02560407 -15.20336914 62.35424805 C-16.92706773 59.90390619 -18.67133 57.46977439 -20.42358398 55.03979492 C-21.50327501 53.53477591 -22.58271238 52.02957488 -23.66186523 50.52416992 C-24.1665332 49.82606201 -24.67120117 49.1279541 -25.19116211 48.40869141 C-26.49417419 46.5753785 -27.74604668 44.720564 -28.97436523 42.83666992 C-29.51963867 42.00264648 -30.06491211 41.16862305 -30.62670898 40.30932617 C-30.97436523 37.83666992 -30.97436523 37.83666992 -28.96655273 34.44604492 C-27.94463289 33.14592733 -26.90414438 31.86027381 -25.84936523 30.58666992 C-24.72826652 29.17076315 -23.60986198 27.75271977 -22.49389648 26.33276367 C-21.9120459 25.59912598 -21.33019531 24.86548828 -20.73071289 24.10961914 C-17.32926455 19.70768919 -14.2131362 15.10009397 -11.07348633 10.50952148 C-3.57434757 -0.2956892 -3.57434757 -0.2956892 0 0 Z " fill="#4063A1" transform="translate(374.974365234375,51.163330078125)"/>
<path d="M0 0 C0.8674072 0.00368717 1.7348144 0.00737434 2.62850666 0.01117325 C3.62550083 0.00567459 4.622495 0.00017593 5.64970112 -0.00548935 C6.74230244 0.00889175 7.83490376 0.02327286 8.9606142 0.03808975 C10.11197361 0.03750565 11.26333302 0.03692154 12.4495821 0.03631973 C16.26451734 0.03911188 20.07867637 0.07025887 23.89347553 0.10156631 C26.53477266 0.10902464 29.17607532 0.1147195 31.81737995 0.11871719 C38.06479099 0.13115365 44.31192231 0.16398398 50.55921012 0.20411515 C57.67155948 0.2488123 64.78392214 0.27081467 71.89637697 0.29089689 C86.52706459 0.33271626 101.15753177 0.40308114 115.78800678 0.49219131 C115.78800678 0.82219131 115.78800678 1.15219131 115.78800678 1.49219131 C115.1947828 1.49273608 114.60155882 1.49328085 113.99035835 1.49384212 C99.55125568 1.50881396 85.11242707 1.55127685 70.67350197 1.62428188 C63.6908828 1.65892497 56.70846091 1.68428647 49.72575092 1.68774796 C42.98876893 1.69111375 36.25235825 1.72041046 29.51550579 1.76562309 C26.94349461 1.77862684 24.37142415 1.78289567 21.79938412 1.77834511 C18.20039947 1.77345996 14.60287641 1.7994424 11.00407124 1.83276749 C9.93736195 1.82414185 8.87065266 1.8155162 7.77161884 1.80662918 C1.7510354 1.86020362 1.7510354 1.86020362 -3.28799725 4.9709053 C-3.92291592 5.80292969 -4.55783459 6.63495407 -5.21199322 7.49219131 C-6.20199322 7.98719131 -6.20199322 7.98719131 -7.21199322 8.49219131 C-3.64583539 0.81123599 -3.64583539 0.81123599 0 0 Z " fill="#132109" transform="translate(169.21199321746826,6.507808685302734)"/>
<path d="M0 0 C0.66 0.33 1.32 0.66 2 1 C1.34 2.32 0.68 3.64 0 5 C0 4.34 0 3.68 0 3 C-18.48 3 -36.96 3 -56 3 C-56 2.67 -56 2.34 -56 2 C-37.52 2 -19.04 2 0 2 C0 1.34 0 0.68 0 0 Z " fill="#5F9827" transform="translate(448,236)"/>
<path d="M0 0 C0.66 0.33 1.32 0.66 2 1 C1.34 2.32 0.68 3.64 0 5 C0 4.34 0 3.68 0 3 C-5.28 3 -10.56 3 -16 3 C-16 2.67 -16 2.34 -16 2 C-10.72 2 -5.44 2 0 2 C0 1.34 0 0.68 0 0 Z " fill="#507F21" transform="translate(448,236)"/>
</svg>
